<svg width="100" height="100" viewBox="0 0 100 100" fill="none" xmlns="http://www.w3.org/2000/svg">
<path d="M19.0015 87C19.0015 78.7862 18.7445 67.2488 24.9273 61.1094C26.0778 59.967 31.3183 57.4948 33.0964 57.4948C34.8742 57.4948 36.6519 57.4948 38.4296 57.4948C39.2423 57.4948 43.9477 57.4948 41.0962 57.4948C34.1255 57.4948 31.9536 47.214 31.9536 41.6074C31.9536 37.4725 31.7348 35.2592 34.2393 32.1506C36.1323 29.8009 40.4191 28.7761 43.0433 28.0316C49.1561 26.2973 56.6886 26.189 60.1434 32.1926C63.7477 38.4559 61.0896 46.4516 59.3392 52.5352C58.8299 54.3051 60.0222 53.7121 62.0481 53.7121C64.5373 53.7121 65.618 54.6864 67.7623 55.8136C71.365 57.7075 72.819 61.2092 75.7621 63.5471C78.6461 65.8382 79.1913 70.3578 80.545 73.3822C81.387 75.2635 81.4762 76.8934 81.4762 79.0563C81.4762 81.1868 83 82.6472 83 84.7304" stroke="black" stroke-width="3" stroke-linecap="round"/>
<path d="M19 15.0147C22.1602 13.3604 25.8823 10.6441 29.5556 12.7948C30.8436 13.549 32.7612 16.9993 33.1444 18.2336C33.7013 20.0267 35.064 21.9687 35.7079 23.8943C36.0874 25.0291 37.0701 28.5722 38 29" stroke="black" stroke-width="3" stroke-linecap="round"/>
<path d="M43 13.5124C45.3882 11.6808 47.2764 11.4123 49.4211 13.2626C51.3821 14.9546 51.0526 15.7792 51.0526 18.5074C51.0526 19.8134 51.1754 25.5652 52 26" stroke="black" stroke-width="3" stroke-linecap="round"/>
<path d="M40 44C40.3341 43.6089 40.6588 43.2925 41 43" stroke="black" stroke-width="3" stroke-linecap="round"/>
<path d="M49 41C49.6529 41 50.2899 41 51 41" stroke="black" stroke-width="3" stroke-linecap="round"/>
<path d="M44 50H48" stroke="black" stroke-width="3" stroke-linecap="round"/>
<circle cx="50" cy="50" r="49.5" stroke="#00397C"/>
</svg>
