<?xml version="1.0" encoding="UTF-8"?><svg id="_이어_1" xmlns="http://www.w3.org/2000/svg" xmlns:xlink="http://www.w3.org/1999/xlink" viewBox="0 0 100 100"><defs><style>.cls-1{fill:#fff;}.cls-2{clip-path:url(#clippath-1);}.cls-3{clip-path:url(#clippath);}.cls-4{fill:none;}.cls-5{fill:#f2f2f2;}</style><clipPath id="clippath"><rect class="cls-4" x="-1367.36" y="495.34" width="1920" height="420"/></clipPath><clipPath id="clippath-1"><rect class="cls-4" x="-1367.36" y="964.67" width="1920" height="420"/></clipPath></defs><g><circle class="cls-5" cx="50" cy="50" r="50"/><g><g><path class="cls-1" d="M42.25,35.95c-3.29-.82-6.39,1.75-6.19,5.13,.12,2.11,1.66,3.97,3.72,4.48,3.29,.82,6.39-1.75,6.19-5.13-.12-2.11-1.67-3.97-3.72-4.48Z"/><path class="cls-1" d="M60.23,35.95c-3.29-.82-6.39,1.75-6.19,5.13,.12,2.11,1.66,3.97,3.72,4.48,3.29,.82,6.39-1.75,6.19-5.13-.12-2.11-1.67-3.97-3.72-4.48Z"/></g><path class="cls-1" d="M38.3,64.2c1.27-2.31,3.27-4.32,6.01-5.68,3.56-1.77,7.83-1.77,11.39,0,2.74,1.36,4.74,3.38,6.01,5.68h7.05c-1.55-4.58-4.8-8.71-9.86-11.36-5.54-2.9-12.25-2.9-17.79,0-5.06,2.65-8.31,6.78-9.86,11.36h7.05Z"/></g></g><g class="cls-3"><image width="5184" height="3456" transform="translate(-1367.36 93.53) scale(.37)" xlink:href="C:\Users\rladnswl0412\Downloads\jon-tyson-O7ke8N4kTpQ-unsplash.jpg"/></g><g class="cls-2"><image width="3788" height="4734" transform="translate(-1367.36 -680.66) scale(.51)" xlink:href="C:\Users\rladnswl0412\Downloads\ar-A5FHmJKiIC4-unsplash.jpg"/></g></svg>