<?xml version="1.0" encoding="UTF-8"?><svg id="_이어_1" xmlns="http://www.w3.org/2000/svg" xmlns:xlink="http://www.w3.org/1999/xlink" viewBox="0 0 36 36"><defs><style>.cls-1{fill:#fff;}.cls-2{fill:#ed6f2a;}.cls-3{clip-path:url(#clippath);}.cls-4{fill:none;}</style><clipPath id="clippath"><rect class="cls-4" x="-875.33" y="925.22" width="1920" height="420"/></clipPath></defs><g><circle class="cls-2" cx="18" cy="18" r="18"/><g><polygon class="cls-1" points="17.03 7.24 16.05 8.92 18 8.92 17.03 7.24"/><polygon class="cls-1" points="18.97 8.92 19.95 7.24 18 7.24 18.97 8.92"/></g><g><path class="cls-1" d="M19.93,10.11H10.38v15.77h15.24V10.11h-5.68Zm4.72,14.82H11.35V11.06h13.3v13.87Z"/><g><path class="cls-1" d="M17.19,14.92c.82,.16,1.52-.55,1.37-1.37-.09-.46-.46-.83-.91-.91-.82-.16-1.52,.55-1.37,1.37,.09,.46,.46,.83,.91,.91Z"/><path class="cls-1" d="M16.58,22.35c-.89-.13-1.6-.84-1.73-1.73-.14-.98,.41-1.86,1.24-2.2v-1.04c-1.41,.38-2.43,1.74-2.24,3.32,.17,1.38,1.28,2.5,2.66,2.67,1.57,.19,2.93-.83,3.32-2.24h-1.04c-.35,.83-1.22,1.38-2.2,1.24Z"/><polygon class="cls-1" points="21.13 19.43 17.94 19.43 17.94 17.87 20.63 17.87 20.63 17.01 17.94 17.01 17.94 15.41 16.89 15.41 16.89 20.32 22.18 20.32 22.18 19.43 21.13 19.43"/></g></g></g><g class="cls-3"><image width="3788" height="4734" transform="translate(-875.33 -720.11) scale(.51)" xlink:href="C:\Users\rladnswl0412\Downloads\ar-A5FHmJKiIC4-unsplash.jpg"/></g></svg>