<?xml version="1.0" encoding="UTF-8"?><svg id="_이어_1" xmlns="http://www.w3.org/2000/svg" xmlns:xlink="http://www.w3.org/1999/xlink" viewBox="0 0 36 36"><defs><style>.cls-1{fill:#ed6f2a;}.cls-2{clip-path:url(#clippath);}.cls-3{fill:none;}.cls-4{fill:#f2f2f2;}</style><clipPath id="clippath"><rect class="cls-3" x="-1040.69" y="925.22" width="1920" height="420"/></clipPath></defs><g class="cls-2"><image width="3788" height="4734" transform="translate(-1040.69 -720.11) scale(.51)" xlink:href="C:\Users\rladnswl0412\Downloads\ar-A5FHmJKiIC4-unsplash.jpg"/></g><g><circle class="cls-4" cx="18" cy="18" r="18"/><g><path class="cls-1" d="M16.82,22.31h-1.46l-.03,.07c-.52,1.15-1.77,1.83-3.03,1.65-1.24-.18-2.23-1.17-2.41-2.4-.18-1.26,.5-2.51,1.65-3.03l.07-.03v-1.46l-.16,.05c-1.96,.61-3.21,2.53-2.96,4.57,.23,1.92,1.79,3.48,3.71,3.71,.18,.02,.36,.03,.53,.03,1.85,0,3.47-1.17,4.04-3l.05-.16Z"/><polygon class="cls-1" points="17.92 17.82 17.92 16.61 14.19 16.61 14.19 14.39 12.71 14.39 12.71 21.22 20.07 21.22 20.07 19.97 14.19 19.97 14.19 17.82 17.92 17.82"/><path class="cls-1" d="M13.13,13.72c.11,.02,.21,.03,.32,.03,.43,0,.83-.17,1.14-.47,.39-.39,.55-.92,.44-1.46-.12-.64-.63-1.15-1.27-1.27-.54-.1-1.08,.06-1.46,.44-.39,.39-.55,.92-.44,1.46,.12,.64,.63,1.15,1.27,1.27Z"/><polygon class="cls-1" points="26.85 17.43 16.44 25.49 18.44 25.47 27.59 18.39 26.85 17.43"/></g></g></svg>