<svg width="148" height="36" viewBox="0 0 148 36" fill="none" xmlns="http://www.w3.org/2000/svg">
<path fill-rule="evenodd" clip-rule="evenodd" d="M36 0H3.59831C1.61289 0 0 1.61289 0 3.59831V32.4017C0 34.3871 1.61289 36 3.59831 36H36H143.677C146.062 36 148 34.3871 148 32.4017V3.59831C148 1.61289 146.062 3.8147e-06 143.677 3.8147e-06L36 0Z" fill="#F2F2F2"/>
<path d="M59.0079 13.8082V14.6722H65.3319V13.8082H59.0079ZM62.1639 14.9602C60.5679 14.9602 59.5479 15.5122 59.5479 16.4362C59.5479 17.3602 60.5679 17.9002 62.1639 17.9002C63.7599 17.9002 64.7919 17.3602 64.7919 16.4362C64.7919 15.5122 63.7599 14.9602 62.1639 14.9602ZM62.1639 15.7762C63.0639 15.7762 63.5919 16.0042 63.5919 16.4362C63.5919 16.8562 63.0639 17.0842 62.1639 17.0842C61.2759 17.0842 60.7359 16.8562 60.7359 16.4362C60.7359 16.0042 61.2759 15.7762 62.1639 15.7762ZM61.5399 12.9082V14.4202H62.7999V12.9082H61.5399ZM61.5519 18.8362V20.3602H62.8119V18.8362H61.5519ZM58.7319 19.2322C60.7239 19.2322 63.3159 19.1962 65.6919 18.8242L65.6319 18.0442C63.3039 18.3202 60.6279 18.3442 58.5879 18.3442L58.7319 19.2322ZM66.3039 13.0282V19.5202H67.5639V13.0282H66.3039ZM60.2319 19.9522V20.8042H66.3159V21.4882H60.2559V23.3722H61.4919V22.2802H67.5639V19.9522H60.2319ZM60.2559 23.0362V23.9002H67.8879V23.0362H60.2559ZM74.055 17.2762V18.3082H75.975V17.2762H74.055ZM71.679 15.9442V16.3882C71.679 18.1282 70.959 20.0002 69.447 20.8882L70.167 21.8362C71.835 20.8522 72.639 18.6082 72.639 16.3882V15.9442H71.679ZM71.919 15.9442V16.3882C71.919 18.5602 72.747 20.6722 74.427 21.5842L75.123 20.6482C73.611 19.8322 72.879 18.0922 72.879 16.3882V15.9442H71.919ZM69.795 14.9722V15.9922H74.751V14.9722H69.795ZM71.679 13.4122V15.7762H72.879V13.4122H71.679ZM77.739 13.0282V23.9962H78.939V13.0282H77.739ZM75.531 13.2442V23.4562H76.707V13.2442H75.531ZM83.582 13.8322C81.962 13.8322 80.81 15.3322 80.81 17.6962C80.81 20.0602 81.962 21.5722 83.582 21.5722C85.202 21.5722 86.354 20.0602 86.354 17.6962C86.354 15.3322 85.202 13.8322 83.582 13.8322ZM83.582 14.9722C84.53 14.9722 85.166 15.9922 85.166 17.6962C85.166 19.4122 84.53 20.4442 83.582 20.4442C82.646 20.4442 82.01 19.4122 82.01 17.6962C82.01 15.9922 82.646 14.9722 83.582 14.9722ZM88.478 13.0162V24.0082H89.726V13.0162H88.478ZM85.97 17.1082V18.1162H89.018V17.1082H85.97ZM99.6204 14.9242V15.9322H102.393V14.9242H99.6204ZM99.5244 17.1922V18.2122H102.321V17.1922H99.5244ZM102.189 13.0282V19.4842H103.449V13.0282H102.189ZM98.6964 13.8202V14.3962C98.6964 16.3162 97.2684 17.8282 94.4724 18.5962L94.9764 19.5922C98.2044 18.6682 100.029 16.7122 100.029 13.8202H98.6964ZM95.0604 13.8202V14.8282H99.5604V13.8202H95.0604ZM99.8484 19.6162C97.6284 19.6162 96.1884 20.4322 96.1884 21.7762C96.1884 23.1202 97.6284 23.9482 99.8484 23.9482C102.069 23.9482 103.509 23.1202 103.509 21.7762C103.509 20.4322 102.069 19.6162 99.8484 19.6162ZM99.8484 20.5882C101.349 20.5882 102.273 21.0202 102.273 21.7762C102.273 22.5322 101.349 22.9522 99.8484 22.9522C98.3604 22.9522 97.4244 22.5322 97.4244 21.7762C97.4244 21.0202 98.3604 20.5882 99.8484 20.5882ZM107.984 13.9282V15.7282C107.984 17.7562 106.916 19.8562 105.212 20.6842L105.98 21.6922C107.864 20.7322 109.004 18.2842 109.004 15.7282V13.9282H107.984ZM108.224 13.9282V15.7282C108.224 18.2002 109.316 20.5402 111.14 21.4882L111.908 20.4922C110.264 19.6762 109.232 17.6842 109.232 15.7282V13.9282H108.224ZM112.64 13.0282V23.9962H113.9V13.0282H112.64ZM113.612 17.3722V18.4162H115.604V17.3722H113.612ZM116.443 21.6802V22.7122H126.379V21.6802H116.443ZM120.763 19.4482V22.1002H122.011V19.4482H120.763ZM117.607 13.7962V14.8042H123.943V16.2682H117.631V19.3042H118.879V17.2642H125.191V13.7962H117.607ZM117.631 18.7882V19.8082H125.443V18.7882H117.631Z" fill="#ED6F2A"/>
<path d="M17.3617 21.7889H15.9017L15.8717 21.8589C15.3517 23.0089 14.1017 23.6889 12.8417 23.5089C11.6017 23.3289 10.6117 22.3389 10.4317 21.1089C10.2517 19.8489 10.9317 18.5989 12.0817 18.0789L12.1517 18.0489V16.5889L11.9917 16.6389C10.0317 17.2489 8.78172 19.1689 9.03172 21.2089C9.26172 23.1289 10.8217 24.6889 12.7417 24.9189C12.9217 24.9389 13.1017 24.9489 13.2717 24.9489C15.1217 24.9489 16.7417 23.7789 17.3117 21.9489L17.3617 21.7889Z" fill="#ED6F2A"/>
<path d="M18.4717 17.2991V16.0891H14.7317V13.8691H13.2617V20.6991H20.6217V19.4491H14.7317V17.2991H18.4717Z" fill="#ED6F2A"/>
<path d="M13.6819 13.1991C13.7919 13.2191 13.8919 13.2291 14.0019 13.2291C14.4319 13.2291 14.8319 13.0591 15.1419 12.7591C15.5319 12.3691 15.6919 11.8391 15.5819 11.2991C15.4619 10.6591 14.9519 10.1491 14.3119 10.0291C13.7719 9.92916 13.2319 10.0891 12.8519 10.4691C12.4619 10.8591 12.3019 11.3891 12.4119 11.9291C12.5319 12.5691 13.0419 13.0791 13.6819 13.1991Z" fill="#ED6F2A"/>
<path d="M27.4022 16.9092L16.9922 24.9692L18.9922 24.9492L28.1422 17.8692L27.4022 16.9092Z" fill="#ED6F2A"/>
</svg>
