<svg width="148" height="36" viewBox="0 0 148 36" fill="none" xmlns="http://www.w3.org/2000/svg">
<path fill-rule="evenodd" clip-rule="evenodd" d="M36 0H3.59831C1.61289 0 0 1.61289 0 3.59831V32.4017C0 34.3871 1.61289 36 3.59831 36H36L143.677 36C146.062 36 148 34.3871 148 32.4017V3.59831C148 1.61289 146.062 3.8147e-06 143.677 3.8147e-06L36 0Z" fill="#F2F2F2"/>
<path d="M48.132 14.228V15.02C48.132 16.52 47.172 17.936 45.456 18.524L46.08 19.52C48.048 18.848 49.164 17.072 49.164 15.02V14.228H48.132ZM48.372 14.228V15.02C48.372 16.916 49.44 18.548 51.384 19.172L51.984 18.188C50.304 17.648 49.392 16.376 49.392 15.02V14.228H48.372ZM45.804 13.808V14.816H51.696V13.808H45.804ZM52.848 13.028V19.592H54.108V13.028H52.848ZM53.76 15.692V16.736H55.656V15.692H53.76ZM50.58 19.844C48.324 19.844 46.92 20.612 46.92 21.908C46.92 23.216 48.324 23.984 50.58 23.984C52.824 23.984 54.228 23.216 54.228 21.908C54.228 20.612 52.824 19.844 50.58 19.844ZM50.58 20.84C52.104 20.84 52.98 21.212 52.98 21.908C52.98 22.616 52.104 23 50.58 23C49.056 23 48.168 22.616 48.168 21.908C48.168 21.212 49.056 20.84 50.58 20.84ZM59.0511 13.88C57.6231 13.88 56.6991 15.368 56.6991 17.768C56.6991 20.18 57.6231 21.668 59.0511 21.668C60.4911 21.668 61.4151 20.18 61.4151 17.768C61.4151 15.368 60.4911 13.88 59.0511 13.88ZM59.0511 15.056C59.7951 15.056 60.2511 16.04 60.2511 17.768C60.2511 19.496 59.7951 20.48 59.0511 20.48C58.3071 20.48 57.8511 19.496 57.8511 17.768C57.8511 16.04 58.3071 15.056 59.0511 15.056ZM64.7511 13.028V23.996H65.9511V13.028H64.7511ZM63.1911 17.3V18.32H65.1711V17.3H63.1911ZM62.3271 13.232V23.468H63.5151V13.232H62.3271ZM75.4061 13.04V20.984H76.6661V13.04H75.4061ZM69.5021 22.76V23.78H76.9781V22.76H69.5021ZM69.5021 20.18V23.144H70.7621V20.18H69.5021ZM70.7501 13.772C69.0941 13.772 67.8341 14.9 67.8341 16.508C67.8341 18.092 69.0941 19.244 70.7501 19.244C72.4061 19.244 73.6541 18.092 73.6541 16.508C73.6541 14.9 72.4061 13.772 70.7501 13.772ZM70.7501 14.852C71.7101 14.852 72.4301 15.5 72.4301 16.508C72.4301 17.492 71.7101 18.14 70.7501 18.14C69.7901 18.14 69.0581 17.492 69.0581 16.508C69.0581 15.5 69.7901 14.852 70.7501 14.852ZM87.1965 15.968V16.988H89.8725V15.968H87.1965ZM89.1885 13.04V21.056H90.4485V13.04H89.1885ZM83.3445 22.76V23.78H90.7245V22.76H83.3445ZM83.3445 20.36V23.324H84.5925V20.36H83.3445ZM84.0405 14.432V15.224C84.0405 16.712 83.0565 18.152 81.3525 18.74L81.9885 19.748C83.9445 19.052 85.0605 17.252 85.0605 15.224V14.432H84.0405ZM84.2925 14.432V15.224C84.2925 17.12 85.3605 18.848 87.2565 19.508L87.8805 18.524C86.2365 17.948 85.3005 16.58 85.3005 15.224V14.432H84.2925ZM81.7125 13.856V14.864H87.5925V13.856H81.7125ZM94.7436 16.724V18.764H95.9916V16.724H94.7436ZM98.6916 16.724V18.764H99.9396V16.724H98.6916ZM92.3916 18.356V19.352H102.304V18.356H92.3916ZM97.3356 20.06C94.9716 20.06 93.5556 20.768 93.5556 22.016C93.5556 23.276 94.9716 23.984 97.3356 23.984C99.6876 23.984 101.116 23.276 101.116 22.016C101.116 20.768 99.6876 20.06 97.3356 20.06ZM97.3356 21.02C98.9436 21.02 99.8436 21.368 99.8436 22.016C99.8436 22.676 98.9436 23.024 97.3356 23.024C95.7276 23.024 94.8276 22.676 94.8276 22.016C94.8276 21.368 95.7276 21.02 97.3356 21.02ZM97.3476 13.208C94.9476 13.208 93.4476 13.988 93.4476 15.284C93.4476 16.58 94.9476 17.336 97.3476 17.336C99.7476 17.336 101.26 16.58 101.26 15.284C101.26 13.988 99.7476 13.208 97.3476 13.208ZM97.3476 14.18C98.9916 14.18 99.9636 14.564 99.9636 15.284C99.9636 15.992 98.9916 16.376 97.3476 16.376C95.7156 16.376 94.7436 15.992 94.7436 15.284C94.7436 14.564 95.7156 14.18 97.3476 14.18ZM108.838 19.544V21.32H110.098V19.544H108.838ZM113.446 13.028V23.996H114.706V13.028H113.446ZM114.286 17.6V18.644H116.266V17.6H114.286ZM106.174 22.028C108.058 22.028 110.59 22.016 112.93 21.584L112.834 20.66C110.59 20.984 107.938 20.996 106.006 20.996L106.174 22.028ZM106.198 14.3V15.296H112.714V14.3H106.198ZM109.462 15.848C107.914 15.848 106.846 16.664 106.846 17.888C106.846 19.124 107.914 19.928 109.462 19.928C111.01 19.928 112.09 19.124 112.09 17.888C112.09 16.664 111.01 15.848 109.462 15.848ZM109.462 16.808C110.326 16.808 110.902 17.228 110.902 17.888C110.902 18.56 110.326 18.968 109.462 18.968C108.598 18.968 108.034 18.56 108.034 17.888C108.034 17.228 108.598 16.808 109.462 16.808ZM108.838 13.064V15.008H110.098V13.064H108.838ZM119.757 14.228V15.02C119.757 16.52 118.797 17.936 117.081 18.524L117.705 19.52C119.673 18.848 120.789 17.072 120.789 15.02V14.228H119.757ZM119.997 14.228V15.02C119.997 16.916 121.065 18.548 123.009 19.172L123.609 18.188C121.929 17.648 121.017 16.376 121.017 15.02V14.228H119.997ZM117.429 13.808V14.816H123.321V13.808H117.429ZM124.473 13.028V19.592H125.733V13.028H124.473ZM125.385 15.692V16.736H127.281V15.692H125.385ZM122.205 19.844C119.949 19.844 118.545 20.612 118.545 21.908C118.545 23.216 119.949 23.984 122.205 23.984C124.449 23.984 125.853 23.216 125.853 21.908C125.853 20.612 124.449 19.844 122.205 19.844ZM122.205 20.84C123.729 20.84 124.605 21.212 124.605 21.908C124.605 22.616 123.729 23 122.205 23C120.681 23 119.793 22.616 119.793 21.908C119.793 21.212 120.681 20.84 122.205 20.84ZM135.992 13.028V18.644H137.252V13.028H135.992ZM130.064 19.172V20.144H136.004V21.032H130.088V23.276H131.312V21.956H137.252V19.172H130.064ZM130.088 22.904V23.9H137.576V22.904H130.088ZM130.94 13.316V14.144C130.94 15.62 129.956 17.048 128.228 17.612L128.84 18.608C130.82 17.948 131.984 16.172 131.984 14.144V13.316H130.94ZM131.18 13.316V14.144C131.18 16.112 132.32 17.78 134.276 18.404L134.888 17.42C133.196 16.904 132.212 15.572 132.212 14.144V13.316H131.18Z" fill="#ED6F2A"/>
<path d="M10.2694 17.298C11.3076 17.4946 12.2045 16.5976 12.0079 15.5594C11.8974 14.9758 11.4305 14.5089 10.8468 14.3983C9.80861 14.2017 8.91171 15.0987 9.1083 16.1369C9.21888 16.7205 9.68574 17.1874 10.2694 17.298Z" fill="#ED6F2A"/>
<path d="M22.5921 10.6358C23.5259 10.814 24.3307 10.0092 24.1587 9.06926C24.0604 8.54707 23.6365 8.12318 23.1143 8.02489C22.1805 7.84673 21.3757 8.65151 21.5477 9.59144C21.646 10.1136 22.0699 10.5375 22.5921 10.6358Z" fill="#ED6F2A"/>
<path d="M22.8572 11.626L20.5166 18.2546H25.1917L22.8572 11.626Z" fill="#ED6F2A"/>
<path d="M27.4027 10.6358C28.3365 10.814 29.1412 10.0092 28.9692 9.06926C28.8709 8.54707 28.4471 8.12318 27.9249 8.02489C26.9911 7.84673 26.1863 8.65151 26.3583 9.59144C26.4566 10.1136 26.8805 10.5375 27.4027 10.6358Z" fill="#ED6F2A"/>
<path d="M27.6597 18.2546L30.0003 11.626H25.3252L27.6597 18.2546Z" fill="#ED6F2A"/>
<path d="M9.49951 26.73C8.36913 26.5641 7.45995 25.6549 7.30022 24.5307C7.12206 23.2836 7.82241 22.1716 8.87906 21.7293V20.4023C7.08521 20.8877 5.78896 22.6201 6.02855 24.6167C6.23742 26.3737 7.65653 27.7928 9.41353 28.0017C11.4101 28.2412 13.1425 26.9511 13.6278 25.1511H12.3009C11.8585 26.2017 10.7466 26.9081 9.49951 26.73V26.73Z" fill="#ED6F2A"/>
<path d="M15.2744 23.0153H11.2321V21.0433H14.6417V19.9436H11.2321V17.9102H9.88672V24.1456H16.6075V23.0153H15.2744Z" fill="#ED6F2A"/>
<path d="M11.6819 9.56241L10.8027 10.2432L23.9138 27.1763L24.793 26.4956L11.6819 9.56241Z" fill="#ED6F2A"/>
</svg>
