<?xml version="1.0" encoding="UTF-8"?><svg id="_이어_1" xmlns="http://www.w3.org/2000/svg" xmlns:xlink="http://www.w3.org/1999/xlink" viewBox="0 0 36 36"><defs><style>.cls-1{fill:#ed6f2a;}.cls-2{clip-path:url(#clippath);}.cls-3{fill:none;}.cls-4{fill:#f2f2f2;}</style><clipPath id="clippath"><rect class="cls-3" x="-1040.69" y="925.22" width="1920" height="420"/></clipPath></defs><g><circle class="cls-4" cx="18" cy="18" r="18"/><g><path class="cls-1" d="M12.28,24.16c-1.29-.19-2.32-1.22-2.51-2.51-.19-1.33,.52-2.61,1.73-3.16v-1.21c-1.91,.59-3.12,2.43-2.88,4.44,.22,1.86,1.74,3.37,3.6,3.6,2,.24,3.84-.96,4.44-2.88h-1.21c-.55,1.21-1.84,1.92-3.16,1.73Z"/><polygon class="cls-1" points="17.8 17.7 17.8 16.74 14.06 16.74 14.06 14.51 12.84 14.51 12.84 21.09 19.95 21.09 19.95 20.1 14.06 20.1 14.06 17.7 17.8 17.7"/><path class="cls-1" d="M13.16,13.6c.5,.09,.99-.05,1.35-.41,.36-.36,.5-.85,.41-1.35-.11-.59-.58-1.06-1.17-1.17-.5-.1-.99,.05-1.35,.41s-.5,.85-.41,1.35c.11,.59,.58,1.06,1.17,1.17Z"/><polygon class="cls-1" points="26.83 17.6 16.81 25.36 18.4 25.35 27.42 18.36 26.83 17.6"/></g></g><g class="cls-2"><image width="3788" height="4734" transform="translate(-1040.69 -720.11) scale(.51)" xlink:href="C:\Users\rladnswl0412\Downloads\ar-A5FHmJKiIC4-unsplash.jpg"/></g></svg>