<svg width="148" height="36" viewBox="0 0 148 36" fill="none" xmlns="http://www.w3.org/2000/svg">
<path fill-rule="evenodd" clip-rule="evenodd" d="M36 0H3.59831C1.61289 0 0 1.61289 0 3.59831V32.4017C0 34.3871 1.61289 36 3.59831 36H36H143.677C146.062 36 148 34.3871 148 32.4017V3.59831C148 1.61289 146.062 3.8147e-06 143.677 3.8147e-06L36 0Z" fill="#F2F2F2"/>
<path d="M11.115 14.4033C12.2121 14.611 13.1598 13.6633 12.9521 12.5662C12.8353 11.9495 12.3419 11.4562 11.7252 11.3393C10.6282 11.1316 9.68044 12.0794 9.88816 13.1764C10.005 13.7931 10.4983 14.2864 11.115 14.4033Z" fill="#ED6F2A"/>
<path d="M10.3033 24.3756C9.10885 24.2003 8.14813 23.2396 7.97936 22.0517C7.7911 20.7339 8.53113 19.559 9.64765 19.0916V17.6895C7.75216 18.2023 6.38247 20.0328 6.63563 22.1426C6.85634 23.9991 8.35586 25.4986 10.2124 25.7193C12.3221 25.9725 14.1527 24.6093 14.6655 22.7073H13.2633C12.796 23.8173 11.621 24.5638 10.3033 24.3756Z" fill="#ED6F2A"/>
<path d="M16.4039 20.4451H12.1261V18.3614H15.7288V17.1994H12.1261V15.0508H10.7109V21.6396H17.8125V20.4451H16.4039Z" fill="#ED6F2A"/>
<path d="M30.0597 28H19.7578V8H30.0597V27.9935V28ZM20.8614 26.8965H28.9561V9.10354H20.8614V26.89V26.8965Z" fill="#ED6F2A"/>
<path d="M28.166 16.627H27.0625V18.1784H28.166V16.627Z" fill="#ED6F2A"/>
<path d="M30.0626 26.8223H6.53125V27.9972H30.0626V26.8223Z" fill="#ED6F2A"/>
<path d="M50.7878 14.1682V14.5762C50.7878 15.8722 49.2278 17.1202 47.0798 17.4082L47.5598 18.3922C50.0198 18.0202 51.8798 16.5202 51.8798 14.5762V14.1682H50.7878ZM51.1358 14.1682V14.5762C51.1358 16.5202 52.9838 18.0202 55.4558 18.3922L55.9238 17.4082C53.7878 17.1202 52.2158 15.8722 52.2158 14.5762V14.1682H51.1358ZM50.8478 19.8922V23.9962H52.0958V19.8922H50.8478ZM46.5518 19.1842V20.2042H56.4638V19.1842H46.5518ZM47.4518 13.6522V14.6602H55.5278V13.6522H47.4518ZM61.9109 18.5362V20.1682H63.1589V18.5362H61.9109ZM57.6029 17.8042V18.7402H67.4789V17.8042H57.6029ZM61.9109 12.9922V14.3122H63.1589V12.9922H61.9109ZM61.8389 14.3962V14.5882C61.8389 15.5842 60.4349 16.3402 58.0589 16.4602L58.4069 17.4082C61.1069 17.2282 62.9429 16.2442 62.9429 14.5882V14.3962H61.8389ZM62.1269 14.3962V14.5882C62.1269 16.2442 63.9629 17.2282 66.6509 17.4082L67.0109 16.4602C64.6349 16.3402 63.2309 15.5842 63.2309 14.5882V14.3962H62.1269ZM58.5629 13.9402V14.8762H66.5069V13.9402H58.5629ZM58.7549 19.5922V20.5162H65.0189V21.2722H58.7669V23.3362H60.0149V22.1362H66.2549V19.5922H58.7549ZM58.7669 22.9642V23.9002H66.5669V22.9642H58.7669ZM76.4059 13.0282V18.9202H77.6659V13.0282H76.4059ZM70.5019 19.4362V23.8642H77.6659V19.4362H76.4179V20.6242H71.7379V19.4362H70.5019ZM71.7379 21.6082H76.4179V22.8562H71.7379V21.6082ZM71.7499 13.5202C70.0699 13.5202 68.8339 14.5642 68.8339 16.0762C68.8339 17.5762 70.0699 18.6322 71.7499 18.6322C73.4299 18.6322 74.6539 17.5762 74.6539 16.0762C74.6539 14.5642 73.4299 13.5202 71.7499 13.5202ZM71.7499 14.5642C72.7339 14.5642 73.4299 15.1642 73.4299 16.0762C73.4299 16.9882 72.7339 17.5882 71.7499 17.5882C70.7659 17.5882 70.0579 16.9882 70.0579 16.0762C70.0579 15.1642 70.7659 14.5642 71.7499 14.5642ZM80.857 13.7122V14.7082H87.721V13.7122H80.857ZM79.669 18.3922V19.4242H89.581V18.3922H79.669ZM83.953 19.1002V24.0082H85.213V19.1002H83.953ZM87.097 13.7122V14.6722C87.097 15.7882 87.097 17.0722 86.677 18.8722L87.913 19.0282C88.333 17.1322 88.333 15.8362 88.333 14.6722V13.7122H87.097ZM100.7 13.0282V20.9602H101.96V13.0282H100.7ZM101.588 16.1602V17.2042H103.508V16.1602H101.588ZM93.8594 18.0682V19.0882H94.7354C97.0994 19.0882 98.3714 19.0282 99.8114 18.7162L99.6794 17.7082C98.2754 18.0082 97.0514 18.0682 94.7354 18.0682H93.8594ZM93.8594 13.9402V18.6082H95.1074V14.9602H98.7314V13.9402H93.8594ZM95.0234 22.7602V23.7802H102.404V22.7602H95.0234ZM95.0234 20.1442V23.2522H96.2834V20.1442H95.0234ZM106.987 15.7402V16.5202C106.987 18.2962 105.979 20.1562 104.287 20.9482L104.983 21.9202C106.831 21.0442 107.971 18.8242 107.971 16.5202V15.7402H106.987ZM107.251 15.7402V16.5202C107.251 18.7042 108.319 20.8522 110.131 21.7162L110.815 20.7682C109.183 19.9642 108.223 18.1882 108.223 16.5202V15.7402H107.251ZM104.623 14.8762V15.8842H110.551V14.8762H104.623ZM106.975 13.2562V15.4162H108.235V13.2562H106.975ZM111.679 13.0282V23.9962H112.939V13.0282H111.679ZM112.651 17.4202V18.4642H114.643V17.4202H112.651ZM116.706 19.4602V23.8642H120.594V19.4602H119.43V20.6962H117.882V19.4602H116.706ZM117.882 21.6202H119.43V22.9042H117.882V21.6202ZM122.526 19.3762V20.2522C122.526 21.3322 121.914 22.4722 120.594 23.0122L121.218 23.9602C122.778 23.3242 123.486 21.7882 123.486 20.2522V19.3762H122.526ZM122.802 19.3762V20.2522C122.802 21.8842 123.486 23.3482 125.07 23.9602L125.706 23.0122C124.374 22.5322 123.774 21.4042 123.774 20.2522V19.3762H122.802ZM121.002 15.5002V16.5322H123.858V15.5002H121.002ZM118.482 13.4842C116.838 13.4842 115.626 14.5282 115.626 16.0282C115.626 17.5402 116.838 18.5842 118.482 18.5842C120.126 18.5842 121.338 17.5402 121.338 16.0282C121.338 14.5282 120.126 13.4842 118.482 13.4842ZM118.482 14.5162C119.442 14.5162 120.126 15.1162 120.126 16.0282C120.126 16.9402 119.442 17.5522 118.482 17.5522C117.522 17.5522 116.826 16.9402 116.826 16.0282C116.826 15.1162 117.522 14.5162 118.482 14.5162ZM123.306 13.0282V18.8362H124.566V13.0282H123.306ZM131.465 13.2562C129.077 13.2562 127.565 14.0482 127.565 15.3562C127.565 16.6762 129.077 17.4562 131.465 17.4562C133.865 17.4562 135.377 16.6762 135.377 15.3562C135.377 14.0482 133.865 13.2562 131.465 13.2562ZM131.465 14.2402C133.097 14.2402 134.081 14.6242 134.081 15.3562C134.081 16.0762 133.097 16.4722 131.465 16.4722C129.833 16.4722 128.861 16.0762 128.861 15.3562C128.861 14.6242 129.833 14.2402 131.465 14.2402ZM127.697 20.1922V23.8642H135.221V20.1922H127.697ZM133.997 21.2002V22.8562H128.933V21.2002H133.997ZM126.509 18.2602V19.2562H136.421V18.2602H126.509Z" fill="#ED6F2A"/>
</svg>
