<?xml version="1.0" encoding="UTF-8"?><svg id="_이어_1" xmlns="http://www.w3.org/2000/svg" xmlns:xlink="http://www.w3.org/1999/xlink" viewBox="0 0 36 36"><defs><style>.cls-1{fill:#fff;}.cls-2{fill:#ed6f2a;}.cls-3{clip-path:url(#clippath);}.cls-4{fill:none;}</style><clipPath id="clippath"><rect class="cls-4" x="-714.83" y="925.22" width="1920" height="420"/></clipPath></defs><g><circle class="cls-2" cx="18" cy="18" r="18"/><g><g><path class="cls-1" d="M12.65,15.32c.82,.16,1.52-.55,1.37-1.37-.09-.46-.46-.83-.91-.91-.82-.16-1.52,.55-1.37,1.37,.09,.46,.46,.83,.91,.91Z"/><path class="cls-1" d="M12.04,22.75c-.89-.13-1.6-.84-1.73-1.73-.14-.98,.41-1.86,1.24-2.2v-1.04c-1.41,.38-2.43,1.74-2.24,3.32,.17,1.38,1.28,2.5,2.66,2.67,1.57,.19,2.93-.83,3.32-2.24h-1.04c-.35,.83-1.22,1.38-2.2,1.24Z"/><polygon class="cls-1" points="16.59 19.82 13.4 19.82 13.4 18.27 16.09 18.27 16.09 17.4 13.4 17.4 13.4 15.8 12.35 15.8 12.35 20.71 17.64 20.71 17.64 19.82 16.59 19.82"/></g><g><path class="cls-1" d="M26.77,25.45h-7.67V10.55h7.67v14.9Zm-6.85-.82h6.03V11.37h-6.03v13.25Z"/><rect class="cls-1" x="24.53" y="16.98" width=".82" height="1.15" transform="translate(49.89 35.11) rotate(-180)"/></g><rect class="cls-1" x="9.23" y="24.57" width="17.53" height=".88"/></g></g><g class="cls-3"><image width="3788" height="4734" transform="translate(-714.83 -720.11) scale(.51)" xlink:href="C:\Users\rladnswl0412\Downloads\ar-A5FHmJKiIC4-unsplash.jpg"/></g></svg>