<?xml version="1.0" encoding="UTF-8"?><svg id="_이어_1" xmlns="http://www.w3.org/2000/svg" xmlns:xlink="http://www.w3.org/1999/xlink" viewBox="0 0 36 36"><defs><style>.cls-1{fill:#ed6f2a;}.cls-2{clip-path:url(#clippath);}.cls-3{fill:none;}.cls-4{fill:#f2f2f2;}</style><clipPath id="clippath"><rect class="cls-3" x="-999.89" y="925.22" width="1920" height="420"/></clipPath></defs><g><circle class="cls-4" cx="18" cy="18" r="18"/><g><path class="cls-1" d="M12.69,17.26c.82,.16,1.52-.55,1.37-1.37-.09-.46-.46-.83-.91-.91-.82-.16-1.52,.55-1.37,1.37,.09,.46,.46,.83,.91,.91Z"/><path class="cls-1" d="M12.09,24.69c-.89-.13-1.6-.84-1.73-1.73-.14-.98,.41-1.86,1.24-2.2v-1.04c-1.41,.38-2.43,1.74-2.24,3.32,.17,1.38,1.28,2.5,2.66,2.67,1.57,.19,2.93-.83,3.32-2.24h-1.04c-.35,.83-1.22,1.38-2.2,1.24Z"/><polygon class="cls-1" points="16.63 21.77 13.45 21.77 13.45 20.21 16.13 20.21 16.13 19.35 13.45 19.35 13.45 17.75 12.39 17.75 12.39 22.65 17.68 22.65 17.68 21.77 16.63 21.77"/><rect class="cls-1" x="18.18" y="9.67" width=".88" height="16.86" transform="translate(-7.19 15.19) rotate(-37.75)"/><path class="cls-1" d="M26.31,10.64c-.06-.06-.12-.11-.18-.15-.2-.14-.44-.21-.69-.21h-3.5v7.48h1v-3h2.73c.55,0,1-.45,1-1v-2.25c0-.17-.03-.33-.1-.48-.06-.15-.15-.28-.26-.39Zm-.64,3.12h-2.73v-2.48h2.73v2.48Z"/></g></g><g class="cls-2"><image width="3788" height="4734" transform="translate(-999.89 -720.11) scale(.51)" xlink:href="C:\Users\rladnswl0412\Downloads\ar-A5FHmJKiIC4-unsplash.jpg"/></g></svg>