<?xml version="1.0" encoding="UTF-8"?><svg id="_이어_1" xmlns="http://www.w3.org/2000/svg" xmlns:xlink="http://www.w3.org/1999/xlink" viewBox="0 0 36 36"><defs><style>.cls-1{fill:#ed6f2a;}.cls-2{clip-path:url(#clippath);}.cls-3{fill:none;}.cls-4{fill:#f2f2f2;}</style><clipPath id="clippath"><rect class="cls-3" x="-999.89" y="925.22" width="1920" height="420"/></clipPath></defs><g class="cls-2"><image width="3788" height="4734" transform="translate(-999.89 -720.11) scale(.51)" xlink:href="C:\Users\rladnswl0412\Downloads\ar-A5FHmJKiIC4-unsplash.jpg"/></g><g><circle class="cls-4" cx="18" cy="18" r="18"/><g><polygon class="cls-1" points="13.83 11 12.94 11.68 23.33 25.12 23.41 25.21 24.3 24.52 13.9 11.09 13.83 11"/><path class="cls-1" d="M26.69,10.99c-.07-.16-.17-.31-.29-.43-.06-.06-.13-.12-.2-.17-.22-.15-.49-.23-.76-.23h-3.63v7.73h1.25v-3h2.61c.62,0,1.12-.5,1.12-1.12v-2.25c0-.18-.04-.36-.11-.53Zm-1.15,.42v2.23h-2.48v-2.23h2.48Z"/><path class="cls-1" d="M12.9,16.95c.09,.02,.17,.02,.25,.02,.34,0,.66-.13,.91-.38,.31-.31,.44-.73,.35-1.16-.1-.51-.5-.92-1.01-1.01-.43-.08-.85,.05-1.16,.35-.31,.31-.44,.73-.35,1.16,.1,.51,.5,.92,1.01,1.01Z"/><path class="cls-1" d="M14.17,23.39c-.34,.81-1.19,1.3-2.07,1.17h0c-.84-.12-1.51-.79-1.63-1.63-.13-.88,.35-1.73,1.17-2.07l.08-.03v-1.29l-.16,.04c-1.54,.42-2.52,1.87-2.33,3.45,.17,1.44,1.34,2.6,2.77,2.77,.13,.02,.26,.02,.39,.02,1.43,0,2.68-.94,3.06-2.36l.04-.16h-1.29l-.03,.08Z"/><polygon class="cls-1" points="13.8 20.2 16.49 20.2 16.49 19.09 13.8 19.09 13.8 17.49 12.49 17.49 12.49 22.65 18.04 22.65 18.04 21.51 13.8 21.51 13.8 20.2"/></g></g></svg>