<svg width="20" height="15" viewBox="0 0 20 15" fill="none" xmlns="http://www.w3.org/2000/svg">
<path d="M8.36172 11.7889H6.90172L6.87172 11.8589C6.35172 13.0089 5.10172 13.6889 3.84172 13.5089C2.60172 13.3289 1.61172 12.3389 1.43172 11.1089C1.25172 9.84887 1.93173 8.59887 3.08173 8.07887L3.15172 8.04887V6.58887L2.99173 6.63887C1.03173 7.24887 -0.218277 9.16887 0.0317228 11.2089C0.261723 13.1289 1.82173 14.6889 3.74173 14.9189C3.92173 14.9389 4.10173 14.9489 4.27173 14.9489C6.12173 14.9489 7.74172 13.7789 8.31172 11.9489L8.36172 11.7889Z" fill="#ED6F2A"/>
<path d="M9.47173 7.29914V6.08914H5.73172V3.86914H4.26172V10.6991H11.6217V9.44914H5.73172V7.29914H9.47173Z" fill="#ED6F2A"/>
<path d="M4.6809 3.19914C4.7909 3.21914 4.89091 3.22914 5.00091 3.22914C5.43091 3.22914 5.83091 3.05914 6.14091 2.75914C6.53091 2.36914 6.69091 1.83914 6.58091 1.29914C6.46091 0.659137 5.9509 0.149137 5.3109 0.0291372C4.7709 -0.0708628 4.23091 0.0891368 3.85091 0.469137C3.46091 0.859137 3.30091 1.38914 3.41091 1.92914C3.53091 2.56914 4.0409 3.07914 4.6809 3.19914Z" fill="#ED6F2A"/>
<path d="M18.4022 6.90918L7.99219 14.9692L9.99219 14.9492L19.1422 7.86918L18.4022 6.90918Z" fill="#ED6F2A"/>
</svg>
