<svg width="148" height="36" viewBox="0 0 148 36" fill="none" xmlns="http://www.w3.org/2000/svg">
<path fill-rule="evenodd" clip-rule="evenodd" d="M36 0H3.59831C1.61289 0 0 1.61289 0 3.59831V32.4017C0 34.3871 1.61289 36 3.59831 36H36L143.677 36C146.062 36 148 34.3871 148 32.4017V3.59831C148 1.61289 146.062 3.8147e-06 143.677 3.8147e-06L36 0Z" fill="#ED6F2A"/>
<path d="M59.008 13.808V14.672H65.332V13.808H59.008ZM62.164 14.96C60.568 14.96 59.548 15.512 59.548 16.436C59.548 17.36 60.568 17.9 62.164 17.9C63.76 17.9 64.792 17.36 64.792 16.436C64.792 15.512 63.76 14.96 62.164 14.96ZM62.164 15.776C63.064 15.776 63.592 16.004 63.592 16.436C63.592 16.856 63.064 17.084 62.164 17.084C61.276 17.084 60.736 16.856 60.736 16.436C60.736 16.004 61.276 15.776 62.164 15.776ZM61.54 12.908V14.42H62.8V12.908H61.54ZM61.552 18.836V20.36H62.812V18.836H61.552ZM58.732 19.232C60.724 19.232 63.316 19.196 65.692 18.824L65.632 18.044C63.304 18.32 60.628 18.344 58.588 18.344L58.732 19.232ZM66.304 13.028V19.52H67.564V13.028H66.304ZM60.232 19.952V20.804H66.316V21.488H60.256V23.372H61.492V22.28H67.564V19.952H60.232ZM60.256 23.036V23.9H67.888V23.036H60.256ZM74.0551 17.276V18.308H75.9751V17.276H74.0551ZM71.6791 15.944V16.388C71.6791 18.128 70.9591 20 69.4471 20.888L70.1671 21.836C71.8351 20.852 72.6391 18.608 72.6391 16.388V15.944H71.6791ZM71.9191 15.944V16.388C71.9191 18.56 72.7471 20.672 74.4271 21.584L75.1231 20.648C73.6111 19.832 72.8791 18.092 72.8791 16.388V15.944H71.9191ZM69.7951 14.972V15.992H74.7511V14.972H69.7951ZM71.6791 13.412V15.776H72.8791V13.412H71.6791ZM77.7391 13.028V23.996H78.9391V13.028H77.7391ZM75.5311 13.244V23.456H76.7071V13.244H75.5311ZM83.5821 13.832C81.9621 13.832 80.8101 15.332 80.8101 17.696C80.8101 20.06 81.9621 21.572 83.5821 21.572C85.2021 21.572 86.3541 20.06 86.3541 17.696C86.3541 15.332 85.2021 13.832 83.5821 13.832ZM83.5821 14.972C84.5301 14.972 85.1661 15.992 85.1661 17.696C85.1661 19.412 84.5301 20.444 83.5821 20.444C82.6461 20.444 82.0101 19.412 82.0101 17.696C82.0101 15.992 82.6461 14.972 83.5821 14.972ZM88.4781 13.016V24.008H89.7261V13.016H88.4781ZM85.9701 17.108V18.116H89.0181V17.108H85.9701ZM99.6205 14.924V15.932H102.393V14.924H99.6205ZM99.5245 17.192V18.212H102.321V17.192H99.5245ZM102.189 13.028V19.484H103.449V13.028H102.189ZM98.6965 13.82V14.396C98.6965 16.316 97.2685 17.828 94.4725 18.596L94.9765 19.592C98.2045 18.668 100.029 16.712 100.029 13.82H98.6965ZM95.0605 13.82V14.828H99.5605V13.82H95.0605ZM99.8485 19.616C97.6285 19.616 96.1885 20.432 96.1885 21.776C96.1885 23.12 97.6285 23.948 99.8485 23.948C102.069 23.948 103.509 23.12 103.509 21.776C103.509 20.432 102.069 19.616 99.8485 19.616ZM99.8485 20.588C101.349 20.588 102.273 21.02 102.273 21.776C102.273 22.532 101.349 22.952 99.8485 22.952C98.3605 22.952 97.4245 22.532 97.4245 21.776C97.4245 21.02 98.3605 20.588 99.8485 20.588ZM107.984 13.928V15.728C107.984 17.756 106.916 19.856 105.212 20.684L105.98 21.692C107.864 20.732 109.004 18.284 109.004 15.728V13.928H107.984ZM108.224 13.928V15.728C108.224 18.2 109.316 20.54 111.14 21.488L111.908 20.492C110.264 19.676 109.232 17.684 109.232 15.728V13.928H108.224ZM112.64 13.028V23.996H113.9V13.028H112.64ZM113.612 17.372V18.416H115.604V17.372H113.612ZM116.443 21.68V22.712H126.379V21.68H116.443ZM120.763 19.448V22.1H122.011V19.448H120.763ZM117.607 13.796V14.804H123.943V16.268H117.631V19.304H118.879V17.264H125.191V13.796H117.607ZM117.631 18.788V19.808H125.443V18.788H117.631Z" fill="white"/>
<path d="M17.3617 21.7889H15.9017L15.8717 21.8589C15.3517 23.0089 14.1017 23.6889 12.8417 23.5089C11.6017 23.3289 10.6117 22.3389 10.4317 21.1089C10.2517 19.8489 10.9317 18.5989 12.0817 18.0789L12.1517 18.0489V16.5889L11.9917 16.6389C10.0317 17.2489 8.78172 19.1689 9.03172 21.2089C9.26172 23.1289 10.8217 24.6889 12.7417 24.9189C12.9217 24.9389 13.1017 24.9489 13.2717 24.9489C15.1217 24.9489 16.7417 23.7789 17.3117 21.9489L17.3617 21.7889Z" fill="white"/>
<path d="M18.4717 17.2991V16.0891H14.7317V13.8691H13.2617V20.6991H20.6217V19.4491H14.7317V17.2991H18.4717Z" fill="white"/>
<path d="M13.6819 13.1991C13.7919 13.2191 13.8919 13.2291 14.0019 13.2291C14.4319 13.2291 14.8319 13.0591 15.1419 12.7591C15.5319 12.3691 15.6919 11.8391 15.5819 11.2991C15.4619 10.6591 14.9519 10.1491 14.3119 10.0291C13.7719 9.92914 13.2319 10.0891 12.8519 10.4691C12.4619 10.8591 12.3019 11.3891 12.4119 11.9291C12.5319 12.5691 13.0419 13.0791 13.6819 13.1991V13.1991Z" fill="white"/>
<path d="M27.4022 16.9092L16.9922 24.9692L18.9922 24.9492L28.1422 17.8692L27.4022 16.9092Z" fill="white"/>
</svg>
