<svg width="148" height="36" viewBox="0 0 148 36" fill="none" xmlns="http://www.w3.org/2000/svg">
<path fill-rule="evenodd" clip-rule="evenodd" d="M36 0H3.59831C1.61289 0 0 1.61289 0 3.59831V32.4017C0 34.3871 1.61289 36 3.59831 36H36L143.677 36C146.062 36 148 34.3871 148 32.4017V3.59831C148 1.61289 146.062 3.8147e-06 143.677 3.8147e-06L36 0Z" fill="#ED6F2A"/>
<path d="M69.088 15.428V16.448H70.876V15.428H69.088ZM72.64 13.04V18.68H73.828V13.04H72.64ZM70.516 13.244V18.62H71.704V13.244H70.516ZM66.496 19.148V20.132H72.58V20.984H66.52V23.42H67.78V21.92H73.828V19.148H66.496ZM66.52 22.868V23.864H74.224V22.868H66.52ZM67.12 13.532C65.656 13.532 64.624 14.504 64.624 15.956C64.624 17.384 65.656 18.38 67.12 18.38C68.572 18.38 69.616 17.384 69.616 15.956C69.616 14.504 68.572 13.532 67.12 13.532ZM67.12 14.516C67.912 14.516 68.488 15.092 68.488 15.956C68.488 16.808 67.912 17.384 67.12 17.384C66.316 17.384 65.752 16.808 65.752 15.956C65.752 15.092 66.316 14.516 67.12 14.516ZM75.9151 20.324V21.356H76.6711C78.0391 21.356 79.2751 21.32 80.7511 21.056L80.6431 20.036C79.2031 20.288 78.0031 20.324 76.6711 20.324H75.9151ZM75.8911 14.18V15.188H78.5791V17.156H75.9151V20.732H77.1391V18.164H79.7911V14.18H75.8911ZM83.7391 13.028V23.996H84.9391V13.028H83.7391ZM80.2831 16.868V17.9H82.0231V16.868H80.2831ZM81.5191 13.268V23.444H82.6831V13.268H81.5191ZM86.9781 14.072V21.308H91.2381V14.072H90.0861V16.676H88.1661V14.072H86.9781ZM88.1661 17.672H90.0861V20.288H88.1661V17.672ZM94.7901 13.028V23.996H95.9901V13.028H94.7901ZM91.0341 17.12V18.152H93.0141V17.12H91.0341ZM92.5821 13.244V23.48H93.7701V13.244H92.5821ZM105.433 13.016V24.008H106.693V13.016H105.433ZM100.849 13.832C99.2172 13.832 98.0292 15.332 98.0292 17.696C98.0292 20.06 99.2172 21.572 100.849 21.572C102.493 21.572 103.681 20.06 103.681 17.696C103.681 15.332 102.493 13.832 100.849 13.832ZM100.849 14.972C101.809 14.972 102.469 15.992 102.469 17.696C102.469 19.412 101.809 20.444 100.849 20.444C99.8892 20.444 99.2292 19.412 99.2292 17.696C99.2292 15.992 99.8892 14.972 100.849 14.972ZM116.556 13.016V24.008H117.804V13.016H116.556ZM114.456 17.036V18.068H116.724V17.036H114.456ZM109.2 20.42V21.44H110.052C112.044 21.44 113.412 21.392 114.996 21.128L114.876 20.12C113.328 20.384 112.008 20.42 110.052 20.42H109.2ZM109.2 13.988V20.756H110.448V15.02H114.276V13.988H109.2ZM110.148 17.06V18.056H113.844V17.06H110.148Z" fill="white"/>
<path d="M16.3902 8L15.1602 10.14H17.6302L16.3902 8Z" fill="white"/>
<path d="M20.3301 8H17.8701L19.1001 10.14L20.3301 8Z" fill="white"/>
<path d="M10 11.2598V27.2798H25.49V11.2598H10ZM24.27 12.4598V26.0798H11.22V12.4598H24.27Z" fill="white"/>
<path d="M17.0204 16.1C17.1104 16.12 17.1904 16.12 17.2704 16.12C17.6104 16.12 17.9304 15.99 18.1804 15.74C18.4904 15.43 18.6204 15.01 18.5304 14.58C18.4304 14.07 18.0304 13.66 17.5204 13.57C17.0904 13.49 16.6704 13.62 16.3604 13.92C16.0504 14.22 15.9204 14.65 16.0104 15.08C16.1104 15.59 16.5104 16 17.0204 16.09V16.1Z" fill="white"/>
<path d="M16.1302 24.9604C16.2602 24.9804 16.3902 24.9804 16.5202 24.9804C17.9502 24.9804 19.2002 24.0404 19.5902 22.6204L19.6302 22.4604H18.3402L18.3102 22.5404C17.9702 23.3504 17.1202 23.8304 16.2402 23.7104C15.4002 23.5904 14.7302 22.9204 14.6102 22.0804C14.4802 21.2004 14.9602 20.3504 15.7802 20.0104L15.8602 19.9804V18.6904L15.7002 18.7304C14.1602 19.1504 13.1802 20.6004 13.3702 22.1804C13.5402 23.6204 14.7102 24.7804 16.1402 24.9504L16.1302 24.9604Z" fill="white"/>
<path d="M20.6101 19.3596V18.2396H17.9301V16.6396H16.6201V21.7996H22.1601V20.6596H17.9301V19.3596H20.6101Z" fill="white"/>
</svg>
