<?xml version="1.0" encoding="UTF-8"?><svg id="_이어_1" xmlns="http://www.w3.org/2000/svg" xmlns:xlink="http://www.w3.org/1999/xlink" viewBox="0 0 36 36"><defs><style>.cls-1{fill:#fff;}.cls-2{fill:#ed6f2a;}.cls-3{clip-path:url(#clippath);}.cls-4{fill:none;}</style><clipPath id="clippath"><rect class="cls-4" x="-755.21" y="925.22" width="1920" height="420"/></clipPath></defs><g><circle class="cls-2" cx="18" cy="18" r="18"/><g><path class="cls-1" d="M11.92,17.43c.82,.16,1.52-.55,1.37-1.37-.09-.46-.46-.83-.91-.91-.82-.16-1.52,.55-1.37,1.37,.09,.46,.46,.83,.91,.91Z"/><path class="cls-1" d="M21.62,12.19c.74,.14,1.37-.49,1.23-1.23-.08-.41-.41-.74-.82-.82-.74-.14-1.37,.49-1.23,1.23,.08,.41,.41,.74,.82,.82Z"/><polygon class="cls-1" points="21.82 12.97 19.98 18.19 23.66 18.19 21.82 12.97"/><path class="cls-1" d="M25.4,12.19c.74,.14,1.37-.49,1.23-1.23-.08-.41-.41-.74-.82-.82-.74-.14-1.37,.49-1.23,1.23,.08,.41,.41,.74,.82,.82Z"/><polygon class="cls-1" points="25.61 18.19 27.45 12.97 23.77 12.97 25.61 18.19"/><path class="cls-1" d="M11.31,24.86c-.89-.13-1.6-.84-1.73-1.73-.14-.98,.41-1.86,1.24-2.2v-1.04c-1.41,.38-2.43,1.74-2.24,3.32,.17,1.38,1.28,2.5,2.66,2.67,1.57,.19,2.93-.83,3.32-2.24h-1.04c-.35,.83-1.22,1.38-2.2,1.24Z"/><polygon class="cls-1" points="15.86 21.94 12.67 21.94 12.67 20.38 15.36 20.38 15.36 19.52 12.67 19.52 12.67 17.91 11.61 17.91 11.61 22.82 16.9 22.82 16.9 21.94 15.86 21.94"/><rect class="cls-1" x="17.4" y="9.84" width=".88" height="16.86" transform="translate(-7.45 14.75) rotate(-37.75)"/></g></g><g class="cls-3"><image width="3788" height="4734" transform="translate(-755.21 -720.11) scale(.51)" xlink:href="C:\Users\rladnswl0412\Downloads\ar-A5FHmJKiIC4-unsplash.jpg"/></g></svg>