<svg width="148" height="36" viewBox="0 0 148 36" fill="none" xmlns="http://www.w3.org/2000/svg">
<path fill-rule="evenodd" clip-rule="evenodd" d="M36 0H3.59831C1.61289 0 0 1.61289 0 3.59831V32.4017C0 34.3871 1.61289 36 3.59831 36H36L143.677 36C146.062 36 148 34.3871 148 32.4017V3.59831C148 1.61289 146.062 3.8147e-06 143.677 3.8147e-06L36 0Z" fill="#ED6F2A"/>
<path d="M11.115 14.4033C12.2121 14.611 13.1598 13.6633 12.9521 12.5662C12.8353 11.9495 12.3419 11.4562 11.7252 11.3393C10.6282 11.1316 9.68044 12.0794 9.88816 13.1764C10.005 13.7931 10.4983 14.2864 11.115 14.4033Z" fill="white"/>
<path d="M10.3033 24.3756C9.10885 24.2003 8.14813 23.2396 7.97936 22.0517C7.7911 20.7339 8.53113 19.559 9.64765 19.0916V17.6895C7.75216 18.2023 6.38247 20.0328 6.63563 22.1426C6.85634 23.9991 8.35586 25.4986 10.2124 25.7193C12.3221 25.9725 14.1527 24.6093 14.6655 22.7073H13.2633C12.796 23.8173 11.621 24.5638 10.3033 24.3756Z" fill="white"/>
<path d="M16.4039 20.4451H12.1261V18.3614H15.7288V17.1994H12.1261V15.0508H10.7109V21.6396H17.8125V20.4451H16.4039Z" fill="white"/>
<path d="M30.0597 28H19.7578V8H30.0597V27.9935V28ZM20.8614 26.8965H28.9561V9.10354H20.8614V26.89V26.8965Z" fill="white"/>
<path d="M28.166 16.627H27.0625V18.1784H28.166V16.627Z" fill="white"/>
<path d="M30.0626 26.8223H6.53125V27.9972H30.0626V26.8223Z" fill="white"/>
<path d="M50.788 14.168V14.576C50.788 15.872 49.228 17.12 47.08 17.408L47.56 18.392C50.02 18.02 51.88 16.52 51.88 14.576V14.168H50.788ZM51.136 14.168V14.576C51.136 16.52 52.984 18.02 55.456 18.392L55.924 17.408C53.788 17.12 52.216 15.872 52.216 14.576V14.168H51.136ZM50.848 19.892V23.996H52.096V19.892H50.848ZM46.552 19.184V20.204H56.464V19.184H46.552ZM47.452 13.652V14.66H55.528V13.652H47.452ZM61.9111 18.536V20.168H63.1591V18.536H61.9111ZM57.6031 17.804V18.74H67.4791V17.804H57.6031ZM61.9111 12.992V14.312H63.1591V12.992H61.9111ZM61.8391 14.396V14.588C61.8391 15.584 60.4351 16.34 58.0591 16.46L58.4071 17.408C61.1071 17.228 62.9431 16.244 62.9431 14.588V14.396H61.8391ZM62.1271 14.396V14.588C62.1271 16.244 63.9631 17.228 66.6511 17.408L67.0111 16.46C64.6351 16.34 63.2311 15.584 63.2311 14.588V14.396H62.1271ZM58.5631 13.94V14.876H66.5071V13.94H58.5631ZM58.7551 19.592V20.516H65.0191V21.272H58.7671V23.336H60.0151V22.136H66.2551V19.592H58.7551ZM58.7671 22.964V23.9H66.5671V22.964H58.7671ZM76.4061 13.028V18.92H77.6661V13.028H76.4061ZM70.5021 19.436V23.864H77.6661V19.436H76.4181V20.624H71.7381V19.436H70.5021ZM71.7381 21.608H76.4181V22.856H71.7381V21.608ZM71.7501 13.52C70.0701 13.52 68.8341 14.564 68.8341 16.076C68.8341 17.576 70.0701 18.632 71.7501 18.632C73.4301 18.632 74.6541 17.576 74.6541 16.076C74.6541 14.564 73.4301 13.52 71.7501 13.52ZM71.7501 14.564C72.7341 14.564 73.4301 15.164 73.4301 16.076C73.4301 16.988 72.7341 17.588 71.7501 17.588C70.7661 17.588 70.0581 16.988 70.0581 16.076C70.0581 15.164 70.7661 14.564 71.7501 14.564ZM80.8572 13.712V14.708H87.7212V13.712H80.8572ZM79.6692 18.392V19.424H89.5812V18.392H79.6692ZM83.9532 19.1V24.008H85.2132V19.1H83.9532ZM87.0972 13.712V14.672C87.0972 15.788 87.0972 17.072 86.6772 18.872L87.9132 19.028C88.3332 17.132 88.3332 15.836 88.3332 14.672V13.712H87.0972ZM100.7 13.028V20.96H101.96V13.028H100.7ZM101.588 16.16V17.204H103.508V16.16H101.588ZM93.8596 18.068V19.088H94.7356C97.0996 19.088 98.3716 19.028 99.8116 18.716L99.6796 17.708C98.2756 18.008 97.0516 18.068 94.7356 18.068H93.8596ZM93.8596 13.94V18.608H95.1076V14.96H98.7316V13.94H93.8596ZM95.0236 22.76V23.78H102.404V22.76H95.0236ZM95.0236 20.144V23.252H96.2836V20.144H95.0236ZM106.987 15.74V16.52C106.987 18.296 105.979 20.156 104.287 20.948L104.983 21.92C106.831 21.044 107.971 18.824 107.971 16.52V15.74H106.987ZM107.251 15.74V16.52C107.251 18.704 108.319 20.852 110.131 21.716L110.815 20.768C109.183 19.964 108.223 18.188 108.223 16.52V15.74H107.251ZM104.623 14.876V15.884H110.551V14.876H104.623ZM106.975 13.256V15.416H108.235V13.256H106.975ZM111.679 13.028V23.996H112.939V13.028H111.679ZM112.651 17.42V18.464H114.643V17.42H112.651ZM116.706 19.46V23.864H120.594V19.46H119.43V20.696H117.882V19.46H116.706ZM117.882 21.62H119.43V22.904H117.882V21.62ZM122.526 19.376V20.252C122.526 21.332 121.914 22.472 120.594 23.012L121.218 23.96C122.778 23.324 123.486 21.788 123.486 20.252V19.376H122.526ZM122.802 19.376V20.252C122.802 21.884 123.486 23.348 125.07 23.96L125.706 23.012C124.374 22.532 123.774 21.404 123.774 20.252V19.376H122.802ZM121.002 15.5V16.532H123.858V15.5H121.002ZM118.482 13.484C116.838 13.484 115.626 14.528 115.626 16.028C115.626 17.54 116.838 18.584 118.482 18.584C120.126 18.584 121.338 17.54 121.338 16.028C121.338 14.528 120.126 13.484 118.482 13.484ZM118.482 14.516C119.442 14.516 120.126 15.116 120.126 16.028C120.126 16.94 119.442 17.552 118.482 17.552C117.522 17.552 116.826 16.94 116.826 16.028C116.826 15.116 117.522 14.516 118.482 14.516ZM123.306 13.028V18.836H124.566V13.028H123.306ZM131.465 13.256C129.077 13.256 127.565 14.048 127.565 15.356C127.565 16.676 129.077 17.456 131.465 17.456C133.865 17.456 135.377 16.676 135.377 15.356C135.377 14.048 133.865 13.256 131.465 13.256ZM131.465 14.24C133.097 14.24 134.081 14.624 134.081 15.356C134.081 16.076 133.097 16.472 131.465 16.472C129.833 16.472 128.861 16.076 128.861 15.356C128.861 14.624 129.833 14.24 131.465 14.24ZM127.697 20.192V23.864H135.221V20.192H127.697ZM133.997 21.2V22.856H128.933V21.2H133.997ZM126.509 18.26V19.256H136.421V18.26H126.509Z" fill="white"/>
</svg>
