<svg width="148" height="36" viewBox="0 0 148 36" fill="none" xmlns="http://www.w3.org/2000/svg">
<path fill-rule="evenodd" clip-rule="evenodd" d="M36 0H3.59831C1.61289 0 0 1.61289 0 3.59831V32.4017C0 34.3871 1.61289 36 3.59831 36H36L143.677 36C146.062 36 148 34.3871 148 32.4017V3.59831C148 1.61289 146.062 3.8147e-06 143.677 3.8147e-06L36 0Z" fill="#ED6F2A"/>
<path d="M48.132 14.228V15.02C48.132 16.52 47.172 17.936 45.456 18.524L46.08 19.52C48.048 18.848 49.164 17.072 49.164 15.02V14.228H48.132ZM48.372 14.228V15.02C48.372 16.916 49.44 18.548 51.384 19.172L51.984 18.188C50.304 17.648 49.392 16.376 49.392 15.02V14.228H48.372ZM45.804 13.808V14.816H51.696V13.808H45.804ZM52.848 13.028V19.592H54.108V13.028H52.848ZM53.76 15.692V16.736H55.656V15.692H53.76ZM50.58 19.844C48.324 19.844 46.92 20.612 46.92 21.908C46.92 23.216 48.324 23.984 50.58 23.984C52.824 23.984 54.228 23.216 54.228 21.908C54.228 20.612 52.824 19.844 50.58 19.844ZM50.58 20.84C52.104 20.84 52.98 21.212 52.98 21.908C52.98 22.616 52.104 23 50.58 23C49.056 23 48.168 22.616 48.168 21.908C48.168 21.212 49.056 20.84 50.58 20.84ZM59.0511 13.88C57.6231 13.88 56.6991 15.368 56.6991 17.768C56.6991 20.18 57.6231 21.668 59.0511 21.668C60.4911 21.668 61.4151 20.18 61.4151 17.768C61.4151 15.368 60.4911 13.88 59.0511 13.88ZM59.0511 15.056C59.7951 15.056 60.2511 16.04 60.2511 17.768C60.2511 19.496 59.7951 20.48 59.0511 20.48C58.3071 20.48 57.8511 19.496 57.8511 17.768C57.8511 16.04 58.3071 15.056 59.0511 15.056ZM64.7511 13.028V23.996H65.9511V13.028H64.7511ZM63.1911 17.3V18.32H65.1711V17.3H63.1911ZM62.3271 13.232V23.468H63.5151V13.232H62.3271ZM75.4061 13.04V20.984H76.6661V13.04H75.4061ZM69.5021 22.76V23.78H76.9781V22.76H69.5021ZM69.5021 20.18V23.144H70.7621V20.18H69.5021ZM70.7501 13.772C69.0941 13.772 67.8341 14.9 67.8341 16.508C67.8341 18.092 69.0941 19.244 70.7501 19.244C72.4061 19.244 73.6541 18.092 73.6541 16.508C73.6541 14.9 72.4061 13.772 70.7501 13.772ZM70.7501 14.852C71.7101 14.852 72.4301 15.5 72.4301 16.508C72.4301 17.492 71.7101 18.14 70.7501 18.14C69.7901 18.14 69.0581 17.492 69.0581 16.508C69.0581 15.5 69.7901 14.852 70.7501 14.852ZM87.1965 15.968V16.988H89.8725V15.968H87.1965ZM89.1885 13.04V21.056H90.4485V13.04H89.1885ZM83.3445 22.76V23.78H90.7245V22.76H83.3445ZM83.3445 20.36V23.324H84.5925V20.36H83.3445ZM84.0405 14.432V15.224C84.0405 16.712 83.0565 18.152 81.3525 18.74L81.9885 19.748C83.9445 19.052 85.0605 17.252 85.0605 15.224V14.432H84.0405ZM84.2925 14.432V15.224C84.2925 17.12 85.3605 18.848 87.2565 19.508L87.8805 18.524C86.2365 17.948 85.3005 16.58 85.3005 15.224V14.432H84.2925ZM81.7125 13.856V14.864H87.5925V13.856H81.7125ZM94.7436 16.724V18.764H95.9916V16.724H94.7436ZM98.6916 16.724V18.764H99.9396V16.724H98.6916ZM92.3916 18.356V19.352H102.304V18.356H92.3916ZM97.3356 20.06C94.9716 20.06 93.5556 20.768 93.5556 22.016C93.5556 23.276 94.9716 23.984 97.3356 23.984C99.6876 23.984 101.116 23.276 101.116 22.016C101.116 20.768 99.6876 20.06 97.3356 20.06ZM97.3356 21.02C98.9436 21.02 99.8436 21.368 99.8436 22.016C99.8436 22.676 98.9436 23.024 97.3356 23.024C95.7276 23.024 94.8276 22.676 94.8276 22.016C94.8276 21.368 95.7276 21.02 97.3356 21.02ZM97.3476 13.208C94.9476 13.208 93.4476 13.988 93.4476 15.284C93.4476 16.58 94.9476 17.336 97.3476 17.336C99.7476 17.336 101.26 16.58 101.26 15.284C101.26 13.988 99.7476 13.208 97.3476 13.208ZM97.3476 14.18C98.9916 14.18 99.9636 14.564 99.9636 15.284C99.9636 15.992 98.9916 16.376 97.3476 16.376C95.7156 16.376 94.7436 15.992 94.7436 15.284C94.7436 14.564 95.7156 14.18 97.3476 14.18ZM110.374 14.168V14.576C110.374 15.872 108.814 17.12 106.666 17.408L107.146 18.392C109.606 18.02 111.466 16.52 111.466 14.576V14.168H110.374ZM110.722 14.168V14.576C110.722 16.52 112.57 18.02 115.042 18.392L115.51 17.408C113.374 17.12 111.802 15.872 111.802 14.576V14.168H110.722ZM110.434 19.892V23.996H111.682V19.892H110.434ZM106.138 19.184V20.204H116.05V19.184H106.138ZM107.038 13.652V14.66H115.114V13.652H107.038ZM119.721 15.74V16.52C119.721 18.296 118.713 20.156 117.021 20.948L117.717 21.92C119.565 21.044 120.705 18.824 120.705 16.52V15.74H119.721ZM119.985 15.74V16.52C119.985 18.704 121.053 20.852 122.865 21.716L123.549 20.768C121.917 19.964 120.957 18.188 120.957 16.52V15.74H119.985ZM117.357 14.876V15.884H123.285V14.876H117.357ZM119.709 13.256V15.416H120.969V13.256H119.709ZM124.413 13.028V23.996H125.673V13.028H124.413ZM125.385 17.42V18.464H127.377V17.42H125.385ZM130.796 14.228V15.02C130.796 16.52 129.836 17.936 128.12 18.524L128.744 19.52C130.712 18.848 131.828 17.072 131.828 15.02V14.228H130.796ZM131.036 14.228V15.02C131.036 16.916 132.104 18.548 134.048 19.172L134.648 18.188C132.968 17.648 132.056 16.376 132.056 15.02V14.228H131.036ZM128.468 13.808V14.816H134.36V13.808H128.468ZM135.512 13.028V19.592H136.772V13.028H135.512ZM136.424 15.692V16.736H138.32V15.692H136.424ZM133.244 19.844C130.988 19.844 129.584 20.612 129.584 21.908C129.584 23.216 130.988 23.984 133.244 23.984C135.488 23.984 136.892 23.216 136.892 21.908C136.892 20.612 135.488 19.844 133.244 19.844ZM133.244 20.84C134.768 20.84 135.644 21.212 135.644 21.908C135.644 22.616 134.768 23 133.244 23C131.72 23 130.832 22.616 130.832 21.908C130.832 21.212 131.72 20.84 133.244 20.84Z" fill="white"/>
<path d="M11.3574 17.044C12.4171 17.2446 13.3325 16.3292 13.1319 15.2695C13.019 14.6738 12.5425 14.1973 11.9468 14.0844C10.8871 13.8838 9.97169 14.7992 10.1723 15.8589C10.2852 16.4546 10.7617 16.9311 11.3574 17.044Z" fill="white"/>
<path d="M10.5717 26.6731C9.41804 26.5038 8.49005 25.5758 8.32702 24.4284C8.14519 23.1555 8.85999 22.0206 9.93846 21.5692V20.2148C8.10757 20.7102 6.7846 22.4784 7.02914 24.5162C7.24232 26.3094 8.69069 27.7578 10.484 27.971C12.5218 28.2156 14.29 26.8988 14.7853 25.0617H13.4309C12.9795 26.1339 11.8446 26.8549 10.5717 26.6731V26.6731Z" fill="white"/>
<path d="M16.4677 22.8785H12.3419V20.8657H15.8218V19.7434H12.3419V17.668H10.9688V24.0322H17.8283V22.8785H16.4677Z" fill="white"/>
<path d="M12.7997 9.14504L11.9023 9.83984L25.284 27.1225L26.1814 26.4277L12.7997 9.14504Z" fill="white"/>
<path d="M29.0182 8.46399C28.9493 8.38875 28.8677 8.32605 28.78 8.26962C28.5166 8.09405 28.2094 8 27.8896 8H23.3438V17.6999H24.6417V13.8062H28.1843C28.8991 13.8062 29.476 13.2293 29.476 12.5145V9.59262C29.476 9.37943 29.4321 9.16625 29.3506 8.97187C29.2691 8.78377 29.1562 8.6082 29.012 8.46399H29.0182ZM28.1843 12.502H24.6417V9.29165H28.1843V12.502Z" fill="white"/>
</svg>
