<svg width="23" height="20" viewBox="0 0 23 20" fill="none" xmlns="http://www.w3.org/2000/svg">
<path d="M4.3574 9.04396C5.41706 9.2446 6.33251 8.32916 6.13187 7.2695C6.019 6.67384 5.54246 6.19731 4.9468 6.08444C3.88714 5.8838 2.97169 6.79924 3.17234 7.8589C3.2852 8.45456 3.76174 8.93109 4.3574 9.04396Z" fill="#ED6F2A"/>
<path d="M3.57175 18.6731C2.41804 18.5038 1.49005 17.5758 1.32702 16.4284C1.14519 15.1555 1.85999 14.0206 2.93846 13.5692V12.2148C1.10757 12.7102 -0.215401 14.4784 0.0291351 16.5162C0.24232 18.3094 1.69069 19.7578 3.48396 19.971C5.52175 20.2156 7.28997 18.8988 7.78531 17.0617H6.43093C5.97948 18.1339 4.84459 18.8549 3.57175 18.6731Z" fill="#ED6F2A"/>
<path d="M9.46768 14.8785H5.34191V12.8657H8.82184V11.7434H5.34191V9.66797H3.96875V16.0322H10.8283V14.8785H9.46768Z" fill="#ED6F2A"/>
<path d="M5.79969 1.14504L4.90234 1.83984L18.284 19.1225L19.1814 18.4277L5.79969 1.14504Z" fill="#ED6F2A"/>
<path d="M22.0182 0.463991C21.9493 0.388749 21.8677 0.326047 21.78 0.269615C21.5166 0.0940512 21.2094 0 20.8896 0H16.3438V9.69992H17.6417V5.80616H21.1843C21.8991 5.80616 22.476 5.2293 22.476 4.51451V1.59262C22.476 1.37943 22.4321 1.16625 22.3506 0.971873C22.2691 0.783768 22.1562 0.608204 22.012 0.463991H22.0182ZM21.1843 4.50197H17.6417V1.29165H21.1843V4.50197Z" fill="#ED6F2A"/>
</svg>
