<svg width="122" height="51" viewBox="0 0 122 51" fill="none" xmlns="http://www.w3.org/2000/svg">
<g clip-path="url(#clip0_441_5597)">
<path d="M24.8042 39.5001C23.2445 43.0998 19.5925 45.6603 15.2937 45.6603C9.6255 45.6603 4.98441 41.1701 4.98441 35.6036C4.98441 31.4473 7.60929 27.8477 11.2993 26.3262V21.2422C4.7942 22.9492 -0.0371094 28.7012 -0.0371094 35.6036C-0.0371094 43.8419 6.81041 50.5217 15.2557 50.5217C22.2934 50.5217 28.1899 45.8088 29.9779 39.463H24.7661L24.8042 39.5001Z" fill="#FFCF23"/>
<path d="M30.6619 19.4981H20.5808V11.7051H15.293V35.6408H35.9116V11.7051H30.6619V19.4981ZM30.6619 31.299H20.5808V23.7286H30.6619V31.299Z" fill="#FFCF23"/>
<path d="M47.3238 21.9845H44.6228V9.10743H39.373V42.3205H44.6228V26.3263H47.3238V43.9163H52.6496V8.58789H47.3238V21.9845Z" fill="#FFCF23"/>
<path d="M72.47 14.8965C74.7906 17.9024 79.1273 20.0919 85.4423 20.6856L87.2683 16.6778C78.7469 15.8985 75.3232 12.4473 75.3232 9.33008V8.81055H69.5789V9.33008C69.5789 12.4473 66.1931 15.8985 57.5957 16.6778L59.4217 20.6856C65.7366 20.0919 70.1115 17.9024 72.394 14.8965H72.47Z" fill="#FFCF23"/>
<path d="M56.1113 26.252H63.6436V28.5157H59.8394V32.5235H79.4309V34.1192H59.8775V43.6935H85.86V39.6114H65.3935V37.9415H84.947V28.5157H81.333V26.252H88.8653V21.9473H56.1113V26.252ZM69.2738 26.252H75.7028V28.5157H69.2738V26.252Z" fill="#FFCF23"/>
<path d="M114.088 21.4278H116.484V30.0744H121.848V8.625H116.484V17.0118H114.088V9.21875H108.838V28.9982H114.088V21.4278Z" fill="#FFCF23"/>
<path d="M107.239 23.4317C104.12 23.9513 101.419 24.0997 97.8051 24.1739V21.6134H106.098V10.9629H92.2891V15.2305H100.62V17.6426H92.3271V28.5157H94.8759C100.278 28.5157 103.74 28.4786 107.696 27.7364L107.239 23.4688V23.4317Z" fill="#FFCF23"/>
<path d="M109.523 30.4453C101.876 30.4453 96.9688 33.0059 96.9688 37.1993C96.9688 41.3927 101.876 43.9532 109.523 43.9532C117.169 43.9532 122 41.3927 122 37.1993C122 33.0059 117.131 30.4453 109.523 30.4453ZM109.523 39.7598C104.996 39.7598 102.599 38.9434 102.599 37.1993C102.599 35.4551 104.996 34.6016 109.523 34.6016C114.05 34.6016 116.408 35.418 116.408 37.1993C116.408 38.9805 113.973 39.7598 109.523 39.7598Z" fill="#FFCF23"/>
<path d="M17.9565 8.29106C20.0575 8.29106 21.7607 6.62961 21.7607 4.5801C21.7607 2.53059 20.0575 0.869141 17.9565 0.869141C15.8555 0.869141 14.1523 2.53059 14.1523 4.5801C14.1523 6.62961 15.8555 8.29106 17.9565 8.29106Z" fill="#FFCF23"/>
</g>
<defs>
<clipPath id="clip0_441_5597">
<rect width="122" height="49.6898" fill="white" transform="translate(0 0.869141)"/>
</clipPath>
</defs>
</svg>
