<svg width="34" height="35" viewBox="0 0 34 35" fill="none" xmlns="http://www.w3.org/2000/svg">
<path d="M17 0.794922C7.616 0.794922 0 8.36367 0 17.6894C0 27.0152 7.616 34.584 17 34.584C26.384 34.584 34 27.0152 34 17.6894C34 8.36367 26.384 0.794922 17 0.794922ZM17 5.86328C19.822 5.86328 22.1 8.12715 22.1 10.9316C22.1 13.7361 19.822 16 17 16C14.178 16 11.9 13.7361 11.9 10.9316C11.9 8.12715 14.178 5.86328 17 5.86328ZM17 29.8535C12.75 29.8535 8.993 27.691 6.8 24.4135C6.851 21.0515 13.6 19.21 17 19.21C20.383 19.21 27.149 21.0515 27.2 24.4135C25.007 27.691 21.25 29.8535 17 29.8535Z" fill="#FFCF23"/>
</svg>
