<?xml version="1.0" encoding="UTF-8"?><svg id="_이어_1" xmlns="http://www.w3.org/2000/svg" xmlns:xlink="http://www.w3.org/1999/xlink" viewBox="0 0 122 52"><defs><style>.cls-1{fill:#ed6f2a;}.cls-2{clip-path:url(#clippath);}.cls-3{fill:none;}</style><clipPath id="clippath"><rect class="cls-3" x="-1151" y="940.16" width="1920" height="420"/></clipPath></defs><g><path class="cls-1" d="M25.11,40.44c-1.77,4.26-6.25,7.1-11.25,6.33-4.43-.68-7.99-4.27-8.66-8.73-.77-5.04,2.05-9.55,6.28-11.34v-5.33C4.28,23.32-.88,30.31,.12,38.38c.87,6.99,6.45,12.62,13.39,13.49,8.01,1.01,14.94-4.19,16.89-11.44h-5.28Z"/><path class="cls-1" d="M31.07,19.5h-10.22V11.33h-5.35v25.05h20.88V11.33h-5.31v8.17Zm0,12.34h-10.22v-7.93h10.22v7.93Z"/><polygon class="cls-1" points="46.36 22.08 43.64 22.08 43.64 8.06 38.33 8.06 38.33 45.04 43.64 45.04 43.64 26.65 46.36 26.65 46.36 45.04 51.75 45.04 51.75 8.06 46.36 8.06 46.36 22.08"/><path class="cls-1" d="M71.83,14.68c2.35,3.14,6.73,5.43,13.14,6.05l1.86-4.21c-8.63-.82-12.08-4.41-12.08-7.68v-.53h-5.8v.53c0,3.27-3.44,6.86-12.12,7.68l1.87,4.21c6.41-.61,10.82-2.9,13.13-6.05Z"/><path class="cls-1" d="M55.25,26.57h7.62v2.37h-3.85v4.21h19.82v1.67h-19.78v10.01h26.31v-4.29h-20.72v-1.76h19.78v-9.85h-3.65v-2.37h7.62v-4.5H55.25v4.5Zm13.34,0h6.53v2.37h-6.53v-2.37Z"/><polygon class="cls-1" points="113.97 21.5 116.41 21.5 116.41 28.77 121.84 28.77 121.84 8.1 116.41 8.1 116.41 16.89 113.97 16.89 113.97 8.1 108.66 8.1 108.66 28.77 113.97 28.77 113.97 21.5"/><path class="cls-1" d="M107.04,23.63c-3.16,.53-5.88,.7-9.57,.78v-2.7h8.39V10.55h-13.99v4.46h8.43v2.53h-8.39v11.36h2.59c5.47,0,8.96-.04,12.97-.82l-.45-4.46Z"/><path class="cls-1" d="M109.35,30.94c-7.74,0-12.73,2.7-12.73,7.07s4.99,7.07,12.73,7.07,12.65-2.7,12.65-7.07-4.94-7.07-12.65-7.07Zm0,9.77c-4.58,0-7.01-.86-7.01-2.7s2.43-2.74,7.01-2.74,6.97,.86,6.97,2.74-2.47,2.7-6.97,2.7Z"/><ellipse class="cls-1" cx="18.18" cy="3.9" rx="3.87" ry="3.9"/></g><g class="cls-2"><image width="3788" height="4734" transform="translate(-1151 -705.18) scale(.51)" xlink:href="C:\Users\rladnswl0412\Downloads\ar-A5FHmJKiIC4-unsplash.jpg"/></g></svg>