<?xml version="1.0" encoding="UTF-8"?><svg id="_이어_1" xmlns="http://www.w3.org/2000/svg" xmlns:xlink="http://www.w3.org/1999/xlink" viewBox="0 0 290 200"><defs><style>.cls-1{fill:#fff;}.cls-2{clip-path:url(#clippath-1);}.cls-3{fill:#e6e6e6;}.cls-4{clip-path:url(#clippath);}.cls-5{fill:none;}</style><clipPath id="clippath"><rect class="cls-5" x="-1525.61" y="541.81" width="1920" height="420"/></clipPath><clipPath id="clippath-1"><rect class="cls-5" x="-1525.61" y="1011.14" width="1920" height="420"/></clipPath></defs><g><rect class="cls-3" width="290" height="200"/><g><path class="cls-1" d="M155.66,122.21c-2.73,6.55-9.62,10.92-17.32,9.73-6.82-1.05-12.29-6.57-13.34-13.44-1.18-7.76,3.16-14.7,9.66-17.45v-8.2c-11.07,3.02-19.01,13.77-17.46,26.19,1.34,10.76,9.93,19.41,20.6,20.76,12.32,1.56,22.99-6.45,25.99-17.6h-8.13Z"/><path class="cls-1" d="M164.82,90h-15.73v-12.57h-8.24v38.54h32.14v-38.54h-8.18v12.57Zm0,18.99h-15.73v-12.2h15.73v12.2Z"/><ellipse class="cls-1" cx="144.99" cy="66" rx="5.96" ry="6"/></g></g><g class="cls-4"><image width="5184" height="3456" transform="translate(-1525.61 140) scale(.37)" xlink:href="C:\Users\rladnswl0412\Downloads\jon-tyson-O7ke8N4kTpQ-unsplash.jpg"/></g><g class="cls-2"><image width="3788" height="4734" transform="translate(-1525.61 -634.19) scale(.51)" xlink:href="C:\Users\rladnswl0412\Downloads\ar-A5FHmJKiIC4-unsplash.jpg"/></g></svg>