<svg width="25" height="21" viewBox="0 0 25 21" fill="none" xmlns="http://www.w3.org/2000/svg">
<path d="M4.26838 9.29799C5.30661 9.49458 6.20354 8.59765 6.00696 7.55943C5.89638 6.97581 5.42947 6.50892 4.84586 6.39834C3.80763 6.20175 2.91073 7.09868 3.10732 8.1369C3.2179 8.72052 3.68477 9.18741 4.26838 9.29799Z" fill="#ED6F2A"/>
<path d="M16.5911 2.63581C17.5249 2.81396 18.3297 2.00919 18.1577 1.06926C18.0594 0.547072 17.6355 0.123183 17.1133 0.0248894C16.1795 -0.153267 15.3748 0.651509 15.5468 1.59144C15.6451 2.11362 16.0689 2.53751 16.5911 2.63581Z" fill="#ED6F2A"/>
<path d="M16.8562 3.62598L14.5156 10.2546H19.1907L16.8562 3.62598Z" fill="#ED6F2A"/>
<path d="M21.4036 2.63581C22.3374 2.81396 23.1422 2.00919 22.9702 1.06926C22.8719 0.547072 22.448 0.123183 21.9259 0.0248894C20.9921 -0.153267 20.1873 0.651509 20.3593 1.59144C20.4576 2.11362 20.8815 2.53751 21.4036 2.63581Z" fill="#ED6F2A"/>
<path d="M21.6606 10.2546L24.0013 3.62598H19.3262L21.6606 10.2546Z" fill="#ED6F2A"/>
<path d="M3.49951 18.73C2.36913 18.5641 1.45995 17.6549 1.30022 16.5307C1.12206 15.2836 1.82241 14.1716 2.87906 13.7293V12.4023C1.08521 12.8877 -0.211045 14.6201 0.0285451 16.6167C0.237418 18.3737 1.65653 19.7928 3.41353 20.0017C5.41011 20.2412 7.14252 18.9511 7.62785 17.1511H6.30086C5.85854 18.2017 4.7466 18.9081 3.49951 18.73V18.73Z" fill="#ED6F2A"/>
<path d="M9.27443 15.0153H5.23211V13.0433H8.64169V11.9436H5.23211V9.91016H3.88672V16.1456H10.6075V15.0153H9.27443Z" fill="#ED6F2A"/>
<path d="M5.68194 1.56241L4.80273 2.24316L17.9138 19.1763L18.793 18.4956L5.68194 1.56241Z" fill="#ED6F2A"/>
</svg>
