<svg width="25" height="20" viewBox="0 0 25 20" fill="none" xmlns="http://www.w3.org/2000/svg">
<path d="M5.11502 6.40327C6.21207 6.611 7.15983 5.66325 6.9521 4.56621C6.83526 3.94952 6.3419 3.45618 5.72522 3.33933C4.62817 3.13161 3.68044 4.07935 3.88816 5.1764C4.00501 5.79308 4.49834 6.28643 5.11502 6.40327Z" fill="#ED6F2A"/>
<path d="M4.30327 16.3756C3.10885 16.2003 2.14813 15.2396 1.97936 14.0517C1.7911 12.7339 2.53113 11.559 3.64765 11.0916V9.68945C1.75216 10.2023 0.382467 12.0328 0.635631 14.1426C0.856339 15.9991 2.35586 17.4986 4.2124 17.7193C6.3221 17.9725 8.15267 16.6093 8.66549 14.7073H7.26334C6.79596 15.8173 5.62102 16.5638 4.30327 16.3756Z" fill="#ED6F2A"/>
<path d="M10.4039 12.4451H6.12606V10.3614H9.7288V9.19944H6.12606V7.05078H4.71094V13.6396H11.8125V12.4451H10.4039Z" fill="#ED6F2A"/>
<path d="M24.0597 20H13.7578V0H24.0597V19.9935V20ZM14.8614 18.8965H22.9561V1.10354H14.8614V18.89V18.8965Z" fill="#ED6F2A"/>
<path d="M22.166 8.62695H21.0625V10.1784H22.166V8.62695Z" fill="#ED6F2A"/>
<path d="M24.0626 18.8223H0.53125V19.9972H24.0626V18.8223Z" fill="#ED6F2A"/>
</svg>
