<?xml version="1.0" encoding="UTF-8"?><svg id="_이어_1" xmlns="http://www.w3.org/2000/svg" xmlns:xlink="http://www.w3.org/1999/xlink" viewBox="0 0 36 36"><defs><style>.cls-1{fill:#fff;}.cls-2{fill:#ed6f2a;}.cls-3{clip-path:url(#clippath);}.cls-4{fill:none;}</style><clipPath id="clippath"><rect class="cls-4" x="-714.83" y="925.22" width="1920" height="420"/></clipPath></defs><circle class="cls-2" cx="18" cy="18" r="18"/><g><path class="cls-1" d="M12.88,14.69c.09,.02,.17,.02,.25,.02,.34,0,.66-.13,.91-.38,.31-.31,.43-.73,.35-1.16-.1-.51-.5-.92-1.01-1.01-.43-.08-.85,.05-1.16,.35-.31,.31-.44,.73-.35,1.16,.1,.51,.5,.92,1.01,1.01Z"/><path class="cls-1" d="M11.96,23.68c.13,.02,.26,.02,.39,.02,1.43,0,2.68-.94,3.06-2.36l.04-.16h-1.29l-.03,.08c-.34,.81-1.2,1.29-2.07,1.17-.84-.12-1.51-.79-1.63-1.63-.13-.88,.35-1.73,1.17-2.07l.08-.03v-1.29l-.16,.04c-1.54,.42-2.52,1.87-2.33,3.45,.17,1.44,1.34,2.6,2.77,2.77Z"/><polygon class="cls-1" points="16.47 18.08 16.47 16.97 13.78 16.97 13.78 15.37 12.48 15.37 12.48 20.53 18.02 20.53 18.02 19.39 13.78 19.39 13.78 18.08 16.47 18.08"/><path class="cls-1" d="M18.97,10.43v14.02H9.11v1.12H26.89V10.43h-7.92Zm6.85,14.02h-5.78V11.5h5.78v12.95Z"/><rect class="cls-1" x="24.03" y="16.85" width="1.07" height="1.4"/></g><g class="cls-3"><image width="3788" height="4734" transform="translate(-714.83 -720.11) scale(.51)" xlink:href="C:\Users\rladnswl0412\Downloads\ar-A5FHmJKiIC4-unsplash.jpg"/></g></svg>