<?xml version="1.0" encoding="UTF-8"?>
<svg xmlns:xlink="http://www.w3.org/1999/xlink" id="_이어_1" xmlns="http://www.w3.org/2000/svg" viewBox="0 0 36 36">
    <defs>
        <style>.cls-1{fill:#ed6f2a;}.cls-2{clip-path:url(#clippath);}.cls-3{fill:none;}.cls-4{fill:#FFFFFF;}</style>
        <clipPath id="clippath">
            <rect class="cls-3" x="-1080.04" y="925.22" width="1920" height="420"/>
        </clipPath>
    </defs>
    <g class="cls-2">
        <image width="3788" height="4734" transform="translate(-1080.04 -720.11) scale(.51)"
               xlink:href="C:\Users\rladnswl0412\Downloads\ar-A5FHmJKiIC4-unsplash.jpg"/>
    </g>
    <g>
        <circle class="cls-4" cx="18" cy="18" r="18"/>
        <g>
            <g>
                <polygon class="cls-1" points="16.65 6.73 15.42 8.87 17.88 8.87 16.65 6.73"/>
                <polygon class="cls-1" points="20.58 6.73 18.12 6.73 19.35 8.87 20.58 6.73"/>
            </g>
            <path class="cls-1" d="M10.26,9.99V26.01h15.49V9.99H10.26Zm14.27,1.2v13.62H11.48V11.19h13.05Z"/>
            <path class="cls-1"
                  d="M17.28,14.83c.09,.02,.17,.02,.25,.02,.34,0,.66-.13,.91-.38,.31-.31,.44-.73,.35-1.16-.1-.51-.5-.92-1.01-1.01-.43-.08-.85,.05-1.16,.35s-.44,.73-.35,1.16c.1,.51,.5,.92,1.01,1.01Z"/>
            <path class="cls-1"
                  d="M16.38,23.69c.13,.02,.26,.02,.39,.02,1.43,0,2.68-.94,3.07-2.36l.04-.16h-1.29l-.03,.08c-.34,.81-1.19,1.29-2.07,1.17-.84-.12-1.51-.79-1.63-1.63-.13-.88,.35-1.73,1.17-2.07l.08-.03v-1.29l-.16,.04c-1.54,.42-2.52,1.87-2.33,3.45,.17,1.44,1.34,2.6,2.77,2.77Z"/>
            <polygon class="cls-1"
                     points="20.87 18.09 20.87 16.97 18.18 16.97 18.18 15.37 16.88 15.37 16.88 20.53 22.42 20.53 22.42 19.39 18.18 19.39 18.18 18.09 20.87 18.09"/>
        </g>
    </g>
</svg>
