<svg width="16" height="20" viewBox="0 0 16 20" fill="none" xmlns="http://www.w3.org/2000/svg">
<path d="M6.39017 0L5.16016 2.14H7.63016L6.39017 0Z" fill="white"/>
<path d="M10.3311 0H7.87109L9.1011 2.14L10.3311 0Z" fill="white"/>
<path d="M0 3.25977V19.2798H15.49V3.25977H0ZM14.27 4.45977V18.0798H1.22V4.45977H14.27Z" fill="white"/>
<path d="M7.0204 8.10002C7.1104 8.12002 7.1904 8.12002 7.2704 8.12002C7.6104 8.12002 7.9304 7.99002 8.1804 7.74002C8.4904 7.43002 8.62038 7.01002 8.53038 6.58002C8.43038 6.07002 8.0304 5.66002 7.5204 5.57002C7.0904 5.49002 6.67039 5.62002 6.36039 5.92002C6.05039 6.22002 5.92039 6.65002 6.01039 7.08002C6.11039 7.59002 6.5104 8.00002 7.0204 8.09002V8.10002Z" fill="white"/>
<path d="M6.12919 16.9595C6.25919 16.9795 6.38921 16.9795 6.51921 16.9795C7.94921 16.9795 9.19918 16.0395 9.58918 14.6195L9.62919 14.4595H8.33918L8.30918 14.5395C7.96918 15.3495 7.11921 15.8295 6.23921 15.7095C5.39921 15.5895 4.7292 14.9195 4.6092 14.0795C4.4792 13.1995 4.95918 12.3495 5.77918 12.0095L5.8592 11.9795V10.6895L5.6992 10.7295C4.1592 11.1495 3.17918 12.5995 3.36918 14.1795C3.53918 15.6195 4.7092 16.7795 6.1392 16.9495L6.12919 16.9595Z" fill="white"/>
<path d="M10.6092 11.3606V10.2406H7.92917V8.64062H6.61914V13.8006H12.1591V12.6606H7.92917V11.3606H10.6092Z" fill="white"/>
</svg>
