<?xml version="1.0" encoding="UTF-8"?><svg id="_이어_1" xmlns="http://www.w3.org/2000/svg" xmlns:xlink="http://www.w3.org/1999/xlink" viewBox="0 0 36 36"><defs><style>.cls-1{fill:#ed6f2a;}.cls-2{clip-path:url(#clippath);}.cls-3{fill:none;}.cls-4{fill:#f2f2f2;}</style><clipPath id="clippath"><rect class="cls-3" x="-959.91" y="925.22" width="1920" height="420"/></clipPath></defs><g class="cls-2"><image width="3788" height="4734" transform="translate(-959.91 -720.11) scale(.51)" xlink:href="C:\Users\rladnswl0412\Downloads\ar-A5FHmJKiIC4-unsplash.jpg"/></g><g><circle class="cls-4" cx="18" cy="18" r="18"/><g><path class="cls-1" d="M11.65,17.13c.09,.02,.17,.02,.25,.02,.34,0,.66-.13,.91-.38,.31-.31,.44-.73,.35-1.16-.1-.51-.5-.92-1.01-1.01-.43-.08-.85,.05-1.16,.35-.31,.31-.44,.73-.35,1.16,.1,.51,.5,.92,1.01,1.01Z"/><path class="cls-1" d="M21.62,12.19c.74,.14,1.37-.49,1.23-1.23-.08-.41-.41-.74-.82-.82-.74-.14-1.37,.49-1.23,1.23,.08,.41,.41,.74,.82,.82Z"/><polygon class="cls-1" points="19.81 18.31 23.84 18.31 21.82 12.59 19.81 18.31"/><path class="cls-1" d="M25.4,12.19c.74,.14,1.37-.49,1.23-1.23-.08-.41-.41-.74-.82-.82-.74-.14-1.37,.49-1.23,1.23,.08,.41,.41,.74,.82,.82Z"/><polygon class="cls-1" points="23.59 12.84 25.61 18.56 27.62 12.84 23.59 12.84"/><path class="cls-1" d="M12.93,23.57c-.34,.81-1.19,1.29-2.07,1.17-.84-.12-1.51-.79-1.63-1.63-.13-.88,.35-1.73,1.17-2.07l.08-.03v-1.29l-.16,.04c-1.54,.42-2.52,1.87-2.33,3.45,.17,1.44,1.34,2.6,2.77,2.77,.13,.02,.26,.02,.39,.02,1.43,0,2.68-.94,3.06-2.36l.04-.16h-1.29l-.03,.08Z"/><polygon class="cls-1" points="12.55 20.38 15.24 20.38 15.24 19.27 12.55 19.27 12.55 17.66 11.25 17.66 11.25 22.82 16.79 22.82 16.79 21.68 12.55 21.68 12.55 20.38"/><polygon class="cls-1" points="13.05 11.16 12.16 11.85 22.56 25.28 22.63 25.38 23.53 24.69 13.13 11.26 13.05 11.16"/></g></g></svg>